%TF.GenerationSoftware,KiCad,Pcbnew,7.0.9*%
%TF.CreationDate,2024-01-03T20:40:41+01:00*%
%TF.ProjectId,pcb_ruler,7063625f-7275-46c6-9572-2e6b69636164,rev?*%
%TF.SameCoordinates,Original*%
%TF.FileFunction,Drillmap*%
%TF.FilePolarity,Positive*%
%FSLAX45Y45*%
G04 Gerber Fmt 4.5, Leading zero omitted, Abs format (unit mm)*
G04 Created by KiCad (PCBNEW 7.0.9) date 2024-01-03 20:40:41*
%MOMM*%
%LPD*%
G01*
G04 APERTURE LIST*
%ADD10C,0.050000*%
%ADD11C,0.200000*%
%ADD12C,0.220000*%
%ADD13C,0.270000*%
%ADD14C,0.320000*%
%ADD15C,0.430000*%
%ADD16C,0.500000*%
%ADD17C,0.100000*%
%ADD18C,0.530000*%
G04 APERTURE END LIST*
D10*
X25837311Y-11362173D02*
G75*
G03*
X25402381Y-11900000I115069J-537827D01*
G01*
X25952380Y-12595000D02*
G75*
G03*
X25837412Y-12437853I-159021J4290D01*
G01*
X9952381Y-10250000D02*
X9952381Y-13550000D01*
X10202381Y-13800000D02*
X25702381Y-13800000D01*
X25952381Y-13550000D02*
X25952381Y-12595000D01*
X25952261Y-11210003D02*
X25952381Y-10250000D01*
X25702381Y-10000000D02*
X10202381Y-10000000D01*
X9952380Y-13550000D02*
G75*
G03*
X10202381Y-13800000I250000J0D01*
G01*
X10202381Y-10000001D02*
G75*
G03*
X9952381Y-10250000I-1J-249999D01*
G01*
X25402380Y-11900000D02*
G75*
G03*
X25837413Y-12437850I550000J0D01*
G01*
X25702381Y-13800001D02*
G75*
G03*
X25952381Y-13550000I-1J250001D01*
G01*
X25952380Y-10250000D02*
G75*
G03*
X25702381Y-10000000I-250000J0D01*
G01*
X25837310Y-11362170D02*
G75*
G03*
X25952261Y-11210003I-37300J147680D01*
G01*
D11*
D12*
X18686000Y-13098000D02*
X18906000Y-13318000D01*
X18906000Y-13098000D02*
X18686000Y-13318000D01*
D13*
X19540600Y-13157200D02*
G75*
G03*
X19540600Y-13157200I-135000J0D01*
G01*
D14*
X20066000Y-12946400D02*
X20066000Y-13266400D01*
X19906000Y-13106400D02*
X20226000Y-13106400D01*
D15*
X21030829Y-13156829D02*
X21030829Y-12852771D01*
X20726771Y-12852771D01*
X20726771Y-13156829D01*
X21030829Y-13156829D01*
D16*
X10702381Y-12150000D02*
X10952381Y-11900000D01*
X10702381Y-11650000D01*
X10452381Y-11900000D01*
X10702381Y-12150000D01*
D17*
X10452381Y-11400000D02*
X10452381Y-12400000D01*
X10452381Y-12400000D02*
G75*
G03*
X10952381Y-12400000I250000J0D01*
G01*
X10952381Y-12400000D02*
X10952381Y-11400000D01*
X10952381Y-11400000D02*
G75*
G03*
X10452381Y-11400000I-250000J0D01*
G01*
D18*
X21579000Y-12638200D02*
X22109000Y-13168200D01*
X22109000Y-12638200D02*
X21579000Y-13168200D01*
X22109000Y-12903200D02*
G75*
G03*
X22109000Y-12903200I-265000J0D01*
G01*
D11*
X10210658Y-14113984D02*
X10210658Y-13913984D01*
X10210658Y-13913984D02*
X10258277Y-13913984D01*
X10258277Y-13913984D02*
X10286848Y-13923508D01*
X10286848Y-13923508D02*
X10305896Y-13942555D01*
X10305896Y-13942555D02*
X10315420Y-13961603D01*
X10315420Y-13961603D02*
X10324944Y-13999698D01*
X10324944Y-13999698D02*
X10324944Y-14028269D01*
X10324944Y-14028269D02*
X10315420Y-14066365D01*
X10315420Y-14066365D02*
X10305896Y-14085412D01*
X10305896Y-14085412D02*
X10286848Y-14104460D01*
X10286848Y-14104460D02*
X10258277Y-14113984D01*
X10258277Y-14113984D02*
X10210658Y-14113984D01*
X10410658Y-14113984D02*
X10410658Y-13980650D01*
X10410658Y-14018746D02*
X10420182Y-13999698D01*
X10420182Y-13999698D02*
X10429705Y-13990174D01*
X10429705Y-13990174D02*
X10448753Y-13980650D01*
X10448753Y-13980650D02*
X10467801Y-13980650D01*
X10534467Y-14113984D02*
X10534467Y-13980650D01*
X10534467Y-13913984D02*
X10524944Y-13923508D01*
X10524944Y-13923508D02*
X10534467Y-13933031D01*
X10534467Y-13933031D02*
X10543991Y-13923508D01*
X10543991Y-13923508D02*
X10534467Y-13913984D01*
X10534467Y-13913984D02*
X10534467Y-13933031D01*
X10658277Y-14113984D02*
X10639229Y-14104460D01*
X10639229Y-14104460D02*
X10629705Y-14085412D01*
X10629705Y-14085412D02*
X10629705Y-13913984D01*
X10763039Y-14113984D02*
X10743991Y-14104460D01*
X10743991Y-14104460D02*
X10734467Y-14085412D01*
X10734467Y-14085412D02*
X10734467Y-13913984D01*
X10991610Y-14113984D02*
X10991610Y-13913984D01*
X10991610Y-13913984D02*
X11058277Y-14056841D01*
X11058277Y-14056841D02*
X11124944Y-13913984D01*
X11124944Y-13913984D02*
X11124944Y-14113984D01*
X11305896Y-14113984D02*
X11305896Y-14009222D01*
X11305896Y-14009222D02*
X11296372Y-13990174D01*
X11296372Y-13990174D02*
X11277324Y-13980650D01*
X11277324Y-13980650D02*
X11239229Y-13980650D01*
X11239229Y-13980650D02*
X11220182Y-13990174D01*
X11305896Y-14104460D02*
X11286848Y-14113984D01*
X11286848Y-14113984D02*
X11239229Y-14113984D01*
X11239229Y-14113984D02*
X11220182Y-14104460D01*
X11220182Y-14104460D02*
X11210658Y-14085412D01*
X11210658Y-14085412D02*
X11210658Y-14066365D01*
X11210658Y-14066365D02*
X11220182Y-14047317D01*
X11220182Y-14047317D02*
X11239229Y-14037793D01*
X11239229Y-14037793D02*
X11286848Y-14037793D01*
X11286848Y-14037793D02*
X11305896Y-14028269D01*
X11401134Y-13980650D02*
X11401134Y-14180650D01*
X11401134Y-13990174D02*
X11420182Y-13980650D01*
X11420182Y-13980650D02*
X11458277Y-13980650D01*
X11458277Y-13980650D02*
X11477324Y-13990174D01*
X11477324Y-13990174D02*
X11486848Y-13999698D01*
X11486848Y-13999698D02*
X11496372Y-14018746D01*
X11496372Y-14018746D02*
X11496372Y-14075888D01*
X11496372Y-14075888D02*
X11486848Y-14094936D01*
X11486848Y-14094936D02*
X11477324Y-14104460D01*
X11477324Y-14104460D02*
X11458277Y-14113984D01*
X11458277Y-14113984D02*
X11420182Y-14113984D01*
X11420182Y-14113984D02*
X11401134Y-14104460D01*
X11582086Y-14094936D02*
X11591610Y-14104460D01*
X11591610Y-14104460D02*
X11582086Y-14113984D01*
X11582086Y-14113984D02*
X11572563Y-14104460D01*
X11572563Y-14104460D02*
X11582086Y-14094936D01*
X11582086Y-14094936D02*
X11582086Y-14113984D01*
X11582086Y-13990174D02*
X11591610Y-13999698D01*
X11591610Y-13999698D02*
X11582086Y-14009222D01*
X11582086Y-14009222D02*
X11572563Y-13999698D01*
X11572563Y-13999698D02*
X11582086Y-13990174D01*
X11582086Y-13990174D02*
X11582086Y-14009222D01*
X9749881Y-14342500D02*
X9949881Y-14542500D01*
X9949881Y-14342500D02*
X9749881Y-14542500D01*
X10201134Y-14353031D02*
X10210658Y-14343508D01*
X10210658Y-14343508D02*
X10229705Y-14333984D01*
X10229705Y-14333984D02*
X10277325Y-14333984D01*
X10277325Y-14333984D02*
X10296372Y-14343508D01*
X10296372Y-14343508D02*
X10305896Y-14353031D01*
X10305896Y-14353031D02*
X10315420Y-14372079D01*
X10315420Y-14372079D02*
X10315420Y-14391127D01*
X10315420Y-14391127D02*
X10305896Y-14419698D01*
X10305896Y-14419698D02*
X10191610Y-14533984D01*
X10191610Y-14533984D02*
X10315420Y-14533984D01*
X10401134Y-14514936D02*
X10410658Y-14524460D01*
X10410658Y-14524460D02*
X10401134Y-14533984D01*
X10401134Y-14533984D02*
X10391610Y-14524460D01*
X10391610Y-14524460D02*
X10401134Y-14514936D01*
X10401134Y-14514936D02*
X10401134Y-14533984D01*
X10486848Y-14353031D02*
X10496372Y-14343508D01*
X10496372Y-14343508D02*
X10515420Y-14333984D01*
X10515420Y-14333984D02*
X10563039Y-14333984D01*
X10563039Y-14333984D02*
X10582086Y-14343508D01*
X10582086Y-14343508D02*
X10591610Y-14353031D01*
X10591610Y-14353031D02*
X10601134Y-14372079D01*
X10601134Y-14372079D02*
X10601134Y-14391127D01*
X10601134Y-14391127D02*
X10591610Y-14419698D01*
X10591610Y-14419698D02*
X10477325Y-14533984D01*
X10477325Y-14533984D02*
X10601134Y-14533984D01*
X10724944Y-14333984D02*
X10743991Y-14333984D01*
X10743991Y-14333984D02*
X10763039Y-14343508D01*
X10763039Y-14343508D02*
X10772563Y-14353031D01*
X10772563Y-14353031D02*
X10782086Y-14372079D01*
X10782086Y-14372079D02*
X10791610Y-14410174D01*
X10791610Y-14410174D02*
X10791610Y-14457793D01*
X10791610Y-14457793D02*
X10782086Y-14495888D01*
X10782086Y-14495888D02*
X10772563Y-14514936D01*
X10772563Y-14514936D02*
X10763039Y-14524460D01*
X10763039Y-14524460D02*
X10743991Y-14533984D01*
X10743991Y-14533984D02*
X10724944Y-14533984D01*
X10724944Y-14533984D02*
X10705896Y-14524460D01*
X10705896Y-14524460D02*
X10696372Y-14514936D01*
X10696372Y-14514936D02*
X10686848Y-14495888D01*
X10686848Y-14495888D02*
X10677325Y-14457793D01*
X10677325Y-14457793D02*
X10677325Y-14410174D01*
X10677325Y-14410174D02*
X10686848Y-14372079D01*
X10686848Y-14372079D02*
X10696372Y-14353031D01*
X10696372Y-14353031D02*
X10705896Y-14343508D01*
X10705896Y-14343508D02*
X10724944Y-14333984D01*
X10915420Y-14333984D02*
X10934467Y-14333984D01*
X10934467Y-14333984D02*
X10953515Y-14343508D01*
X10953515Y-14343508D02*
X10963039Y-14353031D01*
X10963039Y-14353031D02*
X10972563Y-14372079D01*
X10972563Y-14372079D02*
X10982086Y-14410174D01*
X10982086Y-14410174D02*
X10982086Y-14457793D01*
X10982086Y-14457793D02*
X10972563Y-14495888D01*
X10972563Y-14495888D02*
X10963039Y-14514936D01*
X10963039Y-14514936D02*
X10953515Y-14524460D01*
X10953515Y-14524460D02*
X10934467Y-14533984D01*
X10934467Y-14533984D02*
X10915420Y-14533984D01*
X10915420Y-14533984D02*
X10896372Y-14524460D01*
X10896372Y-14524460D02*
X10886848Y-14514936D01*
X10886848Y-14514936D02*
X10877325Y-14495888D01*
X10877325Y-14495888D02*
X10867801Y-14457793D01*
X10867801Y-14457793D02*
X10867801Y-14410174D01*
X10867801Y-14410174D02*
X10877325Y-14372079D01*
X10877325Y-14372079D02*
X10886848Y-14353031D01*
X10886848Y-14353031D02*
X10896372Y-14343508D01*
X10896372Y-14343508D02*
X10915420Y-14333984D01*
X11067801Y-14533984D02*
X11067801Y-14400650D01*
X11067801Y-14419698D02*
X11077325Y-14410174D01*
X11077325Y-14410174D02*
X11096372Y-14400650D01*
X11096372Y-14400650D02*
X11124944Y-14400650D01*
X11124944Y-14400650D02*
X11143991Y-14410174D01*
X11143991Y-14410174D02*
X11153515Y-14429222D01*
X11153515Y-14429222D02*
X11153515Y-14533984D01*
X11153515Y-14429222D02*
X11163039Y-14410174D01*
X11163039Y-14410174D02*
X11182086Y-14400650D01*
X11182086Y-14400650D02*
X11210658Y-14400650D01*
X11210658Y-14400650D02*
X11229705Y-14410174D01*
X11229705Y-14410174D02*
X11239229Y-14429222D01*
X11239229Y-14429222D02*
X11239229Y-14533984D01*
X11334467Y-14533984D02*
X11334467Y-14400650D01*
X11334467Y-14419698D02*
X11343991Y-14410174D01*
X11343991Y-14410174D02*
X11363039Y-14400650D01*
X11363039Y-14400650D02*
X11391610Y-14400650D01*
X11391610Y-14400650D02*
X11410658Y-14410174D01*
X11410658Y-14410174D02*
X11420182Y-14429222D01*
X11420182Y-14429222D02*
X11420182Y-14533984D01*
X11420182Y-14429222D02*
X11429705Y-14410174D01*
X11429705Y-14410174D02*
X11448753Y-14400650D01*
X11448753Y-14400650D02*
X11477324Y-14400650D01*
X11477324Y-14400650D02*
X11496372Y-14410174D01*
X11496372Y-14410174D02*
X11505896Y-14429222D01*
X11505896Y-14429222D02*
X11505896Y-14533984D01*
X11896372Y-14324460D02*
X11724944Y-14581603D01*
X12153515Y-14333984D02*
X12172563Y-14333984D01*
X12172563Y-14333984D02*
X12191610Y-14343508D01*
X12191610Y-14343508D02*
X12201134Y-14353031D01*
X12201134Y-14353031D02*
X12210658Y-14372079D01*
X12210658Y-14372079D02*
X12220182Y-14410174D01*
X12220182Y-14410174D02*
X12220182Y-14457793D01*
X12220182Y-14457793D02*
X12210658Y-14495888D01*
X12210658Y-14495888D02*
X12201134Y-14514936D01*
X12201134Y-14514936D02*
X12191610Y-14524460D01*
X12191610Y-14524460D02*
X12172563Y-14533984D01*
X12172563Y-14533984D02*
X12153515Y-14533984D01*
X12153515Y-14533984D02*
X12134467Y-14524460D01*
X12134467Y-14524460D02*
X12124944Y-14514936D01*
X12124944Y-14514936D02*
X12115420Y-14495888D01*
X12115420Y-14495888D02*
X12105896Y-14457793D01*
X12105896Y-14457793D02*
X12105896Y-14410174D01*
X12105896Y-14410174D02*
X12115420Y-14372079D01*
X12115420Y-14372079D02*
X12124944Y-14353031D01*
X12124944Y-14353031D02*
X12134467Y-14343508D01*
X12134467Y-14343508D02*
X12153515Y-14333984D01*
X12305896Y-14514936D02*
X12315420Y-14524460D01*
X12315420Y-14524460D02*
X12305896Y-14533984D01*
X12305896Y-14533984D02*
X12296372Y-14524460D01*
X12296372Y-14524460D02*
X12305896Y-14514936D01*
X12305896Y-14514936D02*
X12305896Y-14533984D01*
X12439229Y-14333984D02*
X12458277Y-14333984D01*
X12458277Y-14333984D02*
X12477325Y-14343508D01*
X12477325Y-14343508D02*
X12486848Y-14353031D01*
X12486848Y-14353031D02*
X12496372Y-14372079D01*
X12496372Y-14372079D02*
X12505896Y-14410174D01*
X12505896Y-14410174D02*
X12505896Y-14457793D01*
X12505896Y-14457793D02*
X12496372Y-14495888D01*
X12496372Y-14495888D02*
X12486848Y-14514936D01*
X12486848Y-14514936D02*
X12477325Y-14524460D01*
X12477325Y-14524460D02*
X12458277Y-14533984D01*
X12458277Y-14533984D02*
X12439229Y-14533984D01*
X12439229Y-14533984D02*
X12420182Y-14524460D01*
X12420182Y-14524460D02*
X12410658Y-14514936D01*
X12410658Y-14514936D02*
X12401134Y-14495888D01*
X12401134Y-14495888D02*
X12391610Y-14457793D01*
X12391610Y-14457793D02*
X12391610Y-14410174D01*
X12391610Y-14410174D02*
X12401134Y-14372079D01*
X12401134Y-14372079D02*
X12410658Y-14353031D01*
X12410658Y-14353031D02*
X12420182Y-14343508D01*
X12420182Y-14343508D02*
X12439229Y-14333984D01*
X12620182Y-14419698D02*
X12601134Y-14410174D01*
X12601134Y-14410174D02*
X12591610Y-14400650D01*
X12591610Y-14400650D02*
X12582087Y-14381603D01*
X12582087Y-14381603D02*
X12582087Y-14372079D01*
X12582087Y-14372079D02*
X12591610Y-14353031D01*
X12591610Y-14353031D02*
X12601134Y-14343508D01*
X12601134Y-14343508D02*
X12620182Y-14333984D01*
X12620182Y-14333984D02*
X12658277Y-14333984D01*
X12658277Y-14333984D02*
X12677325Y-14343508D01*
X12677325Y-14343508D02*
X12686848Y-14353031D01*
X12686848Y-14353031D02*
X12696372Y-14372079D01*
X12696372Y-14372079D02*
X12696372Y-14381603D01*
X12696372Y-14381603D02*
X12686848Y-14400650D01*
X12686848Y-14400650D02*
X12677325Y-14410174D01*
X12677325Y-14410174D02*
X12658277Y-14419698D01*
X12658277Y-14419698D02*
X12620182Y-14419698D01*
X12620182Y-14419698D02*
X12601134Y-14429222D01*
X12601134Y-14429222D02*
X12591610Y-14438746D01*
X12591610Y-14438746D02*
X12582087Y-14457793D01*
X12582087Y-14457793D02*
X12582087Y-14495888D01*
X12582087Y-14495888D02*
X12591610Y-14514936D01*
X12591610Y-14514936D02*
X12601134Y-14524460D01*
X12601134Y-14524460D02*
X12620182Y-14533984D01*
X12620182Y-14533984D02*
X12658277Y-14533984D01*
X12658277Y-14533984D02*
X12677325Y-14524460D01*
X12677325Y-14524460D02*
X12686848Y-14514936D01*
X12686848Y-14514936D02*
X12696372Y-14495888D01*
X12696372Y-14495888D02*
X12696372Y-14457793D01*
X12696372Y-14457793D02*
X12686848Y-14438746D01*
X12686848Y-14438746D02*
X12677325Y-14429222D01*
X12677325Y-14429222D02*
X12658277Y-14419698D01*
X12867801Y-14333984D02*
X12829706Y-14333984D01*
X12829706Y-14333984D02*
X12810658Y-14343508D01*
X12810658Y-14343508D02*
X12801134Y-14353031D01*
X12801134Y-14353031D02*
X12782087Y-14381603D01*
X12782087Y-14381603D02*
X12772563Y-14419698D01*
X12772563Y-14419698D02*
X12772563Y-14495888D01*
X12772563Y-14495888D02*
X12782087Y-14514936D01*
X12782087Y-14514936D02*
X12791610Y-14524460D01*
X12791610Y-14524460D02*
X12810658Y-14533984D01*
X12810658Y-14533984D02*
X12848753Y-14533984D01*
X12848753Y-14533984D02*
X12867801Y-14524460D01*
X12867801Y-14524460D02*
X12877325Y-14514936D01*
X12877325Y-14514936D02*
X12886848Y-14495888D01*
X12886848Y-14495888D02*
X12886848Y-14448269D01*
X12886848Y-14448269D02*
X12877325Y-14429222D01*
X12877325Y-14429222D02*
X12867801Y-14419698D01*
X12867801Y-14419698D02*
X12848753Y-14410174D01*
X12848753Y-14410174D02*
X12810658Y-14410174D01*
X12810658Y-14410174D02*
X12791610Y-14419698D01*
X12791610Y-14419698D02*
X12782087Y-14429222D01*
X12782087Y-14429222D02*
X12772563Y-14448269D01*
X13058277Y-14333984D02*
X13020182Y-14333984D01*
X13020182Y-14333984D02*
X13001134Y-14343508D01*
X13001134Y-14343508D02*
X12991610Y-14353031D01*
X12991610Y-14353031D02*
X12972563Y-14381603D01*
X12972563Y-14381603D02*
X12963039Y-14419698D01*
X12963039Y-14419698D02*
X12963039Y-14495888D01*
X12963039Y-14495888D02*
X12972563Y-14514936D01*
X12972563Y-14514936D02*
X12982087Y-14524460D01*
X12982087Y-14524460D02*
X13001134Y-14533984D01*
X13001134Y-14533984D02*
X13039229Y-14533984D01*
X13039229Y-14533984D02*
X13058277Y-14524460D01*
X13058277Y-14524460D02*
X13067801Y-14514936D01*
X13067801Y-14514936D02*
X13077325Y-14495888D01*
X13077325Y-14495888D02*
X13077325Y-14448269D01*
X13077325Y-14448269D02*
X13067801Y-14429222D01*
X13067801Y-14429222D02*
X13058277Y-14419698D01*
X13058277Y-14419698D02*
X13039229Y-14410174D01*
X13039229Y-14410174D02*
X13001134Y-14410174D01*
X13001134Y-14410174D02*
X12982087Y-14419698D01*
X12982087Y-14419698D02*
X12972563Y-14429222D01*
X12972563Y-14429222D02*
X12963039Y-14448269D01*
X13153515Y-14333984D02*
X13153515Y-14372079D01*
X13229706Y-14333984D02*
X13229706Y-14372079D01*
X13524944Y-14610174D02*
X13515420Y-14600650D01*
X13515420Y-14600650D02*
X13496372Y-14572079D01*
X13496372Y-14572079D02*
X13486849Y-14553031D01*
X13486849Y-14553031D02*
X13477325Y-14524460D01*
X13477325Y-14524460D02*
X13467801Y-14476841D01*
X13467801Y-14476841D02*
X13467801Y-14438746D01*
X13467801Y-14438746D02*
X13477325Y-14391127D01*
X13477325Y-14391127D02*
X13486849Y-14362555D01*
X13486849Y-14362555D02*
X13496372Y-14343508D01*
X13496372Y-14343508D02*
X13515420Y-14314936D01*
X13515420Y-14314936D02*
X13524944Y-14305412D01*
X13705896Y-14533984D02*
X13591610Y-14533984D01*
X13648753Y-14533984D02*
X13648753Y-14333984D01*
X13648753Y-14333984D02*
X13629706Y-14362555D01*
X13629706Y-14362555D02*
X13610658Y-14381603D01*
X13610658Y-14381603D02*
X13591610Y-14391127D01*
X13943991Y-14533984D02*
X13943991Y-14333984D01*
X14029706Y-14533984D02*
X14029706Y-14429222D01*
X14029706Y-14429222D02*
X14020182Y-14410174D01*
X14020182Y-14410174D02*
X14001134Y-14400650D01*
X14001134Y-14400650D02*
X13972563Y-14400650D01*
X13972563Y-14400650D02*
X13953515Y-14410174D01*
X13953515Y-14410174D02*
X13943991Y-14419698D01*
X14153515Y-14533984D02*
X14134468Y-14524460D01*
X14134468Y-14524460D02*
X14124944Y-14514936D01*
X14124944Y-14514936D02*
X14115420Y-14495888D01*
X14115420Y-14495888D02*
X14115420Y-14438746D01*
X14115420Y-14438746D02*
X14124944Y-14419698D01*
X14124944Y-14419698D02*
X14134468Y-14410174D01*
X14134468Y-14410174D02*
X14153515Y-14400650D01*
X14153515Y-14400650D02*
X14182087Y-14400650D01*
X14182087Y-14400650D02*
X14201134Y-14410174D01*
X14201134Y-14410174D02*
X14210658Y-14419698D01*
X14210658Y-14419698D02*
X14220182Y-14438746D01*
X14220182Y-14438746D02*
X14220182Y-14495888D01*
X14220182Y-14495888D02*
X14210658Y-14514936D01*
X14210658Y-14514936D02*
X14201134Y-14524460D01*
X14201134Y-14524460D02*
X14182087Y-14533984D01*
X14182087Y-14533984D02*
X14153515Y-14533984D01*
X14334468Y-14533984D02*
X14315420Y-14524460D01*
X14315420Y-14524460D02*
X14305896Y-14505412D01*
X14305896Y-14505412D02*
X14305896Y-14333984D01*
X14486849Y-14524460D02*
X14467801Y-14533984D01*
X14467801Y-14533984D02*
X14429706Y-14533984D01*
X14429706Y-14533984D02*
X14410658Y-14524460D01*
X14410658Y-14524460D02*
X14401134Y-14505412D01*
X14401134Y-14505412D02*
X14401134Y-14429222D01*
X14401134Y-14429222D02*
X14410658Y-14410174D01*
X14410658Y-14410174D02*
X14429706Y-14400650D01*
X14429706Y-14400650D02*
X14467801Y-14400650D01*
X14467801Y-14400650D02*
X14486849Y-14410174D01*
X14486849Y-14410174D02*
X14496372Y-14429222D01*
X14496372Y-14429222D02*
X14496372Y-14448269D01*
X14496372Y-14448269D02*
X14401134Y-14467317D01*
X14563039Y-14610174D02*
X14572563Y-14600650D01*
X14572563Y-14600650D02*
X14591611Y-14572079D01*
X14591611Y-14572079D02*
X14601134Y-14553031D01*
X14601134Y-14553031D02*
X14610658Y-14524460D01*
X14610658Y-14524460D02*
X14620182Y-14476841D01*
X14620182Y-14476841D02*
X14620182Y-14438746D01*
X14620182Y-14438746D02*
X14610658Y-14391127D01*
X14610658Y-14391127D02*
X14601134Y-14362555D01*
X14601134Y-14362555D02*
X14591611Y-14343508D01*
X14591611Y-14343508D02*
X14572563Y-14314936D01*
X14572563Y-14314936D02*
X14563039Y-14305412D01*
X9949881Y-14762500D02*
G75*
G03*
X9949881Y-14762500I-100000J0D01*
G01*
X10201134Y-14673031D02*
X10210658Y-14663508D01*
X10210658Y-14663508D02*
X10229705Y-14653984D01*
X10229705Y-14653984D02*
X10277325Y-14653984D01*
X10277325Y-14653984D02*
X10296372Y-14663508D01*
X10296372Y-14663508D02*
X10305896Y-14673031D01*
X10305896Y-14673031D02*
X10315420Y-14692079D01*
X10315420Y-14692079D02*
X10315420Y-14711127D01*
X10315420Y-14711127D02*
X10305896Y-14739698D01*
X10305896Y-14739698D02*
X10191610Y-14853984D01*
X10191610Y-14853984D02*
X10315420Y-14853984D01*
X10401134Y-14834936D02*
X10410658Y-14844460D01*
X10410658Y-14844460D02*
X10401134Y-14853984D01*
X10401134Y-14853984D02*
X10391610Y-14844460D01*
X10391610Y-14844460D02*
X10401134Y-14834936D01*
X10401134Y-14834936D02*
X10401134Y-14853984D01*
X10477325Y-14653984D02*
X10610658Y-14653984D01*
X10610658Y-14653984D02*
X10524944Y-14853984D01*
X10724944Y-14653984D02*
X10743991Y-14653984D01*
X10743991Y-14653984D02*
X10763039Y-14663508D01*
X10763039Y-14663508D02*
X10772563Y-14673031D01*
X10772563Y-14673031D02*
X10782086Y-14692079D01*
X10782086Y-14692079D02*
X10791610Y-14730174D01*
X10791610Y-14730174D02*
X10791610Y-14777793D01*
X10791610Y-14777793D02*
X10782086Y-14815888D01*
X10782086Y-14815888D02*
X10772563Y-14834936D01*
X10772563Y-14834936D02*
X10763039Y-14844460D01*
X10763039Y-14844460D02*
X10743991Y-14853984D01*
X10743991Y-14853984D02*
X10724944Y-14853984D01*
X10724944Y-14853984D02*
X10705896Y-14844460D01*
X10705896Y-14844460D02*
X10696372Y-14834936D01*
X10696372Y-14834936D02*
X10686848Y-14815888D01*
X10686848Y-14815888D02*
X10677325Y-14777793D01*
X10677325Y-14777793D02*
X10677325Y-14730174D01*
X10677325Y-14730174D02*
X10686848Y-14692079D01*
X10686848Y-14692079D02*
X10696372Y-14673031D01*
X10696372Y-14673031D02*
X10705896Y-14663508D01*
X10705896Y-14663508D02*
X10724944Y-14653984D01*
X10915420Y-14653984D02*
X10934467Y-14653984D01*
X10934467Y-14653984D02*
X10953515Y-14663508D01*
X10953515Y-14663508D02*
X10963039Y-14673031D01*
X10963039Y-14673031D02*
X10972563Y-14692079D01*
X10972563Y-14692079D02*
X10982086Y-14730174D01*
X10982086Y-14730174D02*
X10982086Y-14777793D01*
X10982086Y-14777793D02*
X10972563Y-14815888D01*
X10972563Y-14815888D02*
X10963039Y-14834936D01*
X10963039Y-14834936D02*
X10953515Y-14844460D01*
X10953515Y-14844460D02*
X10934467Y-14853984D01*
X10934467Y-14853984D02*
X10915420Y-14853984D01*
X10915420Y-14853984D02*
X10896372Y-14844460D01*
X10896372Y-14844460D02*
X10886848Y-14834936D01*
X10886848Y-14834936D02*
X10877325Y-14815888D01*
X10877325Y-14815888D02*
X10867801Y-14777793D01*
X10867801Y-14777793D02*
X10867801Y-14730174D01*
X10867801Y-14730174D02*
X10877325Y-14692079D01*
X10877325Y-14692079D02*
X10886848Y-14673031D01*
X10886848Y-14673031D02*
X10896372Y-14663508D01*
X10896372Y-14663508D02*
X10915420Y-14653984D01*
X11067801Y-14853984D02*
X11067801Y-14720650D01*
X11067801Y-14739698D02*
X11077325Y-14730174D01*
X11077325Y-14730174D02*
X11096372Y-14720650D01*
X11096372Y-14720650D02*
X11124944Y-14720650D01*
X11124944Y-14720650D02*
X11143991Y-14730174D01*
X11143991Y-14730174D02*
X11153515Y-14749222D01*
X11153515Y-14749222D02*
X11153515Y-14853984D01*
X11153515Y-14749222D02*
X11163039Y-14730174D01*
X11163039Y-14730174D02*
X11182086Y-14720650D01*
X11182086Y-14720650D02*
X11210658Y-14720650D01*
X11210658Y-14720650D02*
X11229705Y-14730174D01*
X11229705Y-14730174D02*
X11239229Y-14749222D01*
X11239229Y-14749222D02*
X11239229Y-14853984D01*
X11334467Y-14853984D02*
X11334467Y-14720650D01*
X11334467Y-14739698D02*
X11343991Y-14730174D01*
X11343991Y-14730174D02*
X11363039Y-14720650D01*
X11363039Y-14720650D02*
X11391610Y-14720650D01*
X11391610Y-14720650D02*
X11410658Y-14730174D01*
X11410658Y-14730174D02*
X11420182Y-14749222D01*
X11420182Y-14749222D02*
X11420182Y-14853984D01*
X11420182Y-14749222D02*
X11429705Y-14730174D01*
X11429705Y-14730174D02*
X11448753Y-14720650D01*
X11448753Y-14720650D02*
X11477324Y-14720650D01*
X11477324Y-14720650D02*
X11496372Y-14730174D01*
X11496372Y-14730174D02*
X11505896Y-14749222D01*
X11505896Y-14749222D02*
X11505896Y-14853984D01*
X11896372Y-14644460D02*
X11724944Y-14901603D01*
X12153515Y-14653984D02*
X12172563Y-14653984D01*
X12172563Y-14653984D02*
X12191610Y-14663508D01*
X12191610Y-14663508D02*
X12201134Y-14673031D01*
X12201134Y-14673031D02*
X12210658Y-14692079D01*
X12210658Y-14692079D02*
X12220182Y-14730174D01*
X12220182Y-14730174D02*
X12220182Y-14777793D01*
X12220182Y-14777793D02*
X12210658Y-14815888D01*
X12210658Y-14815888D02*
X12201134Y-14834936D01*
X12201134Y-14834936D02*
X12191610Y-14844460D01*
X12191610Y-14844460D02*
X12172563Y-14853984D01*
X12172563Y-14853984D02*
X12153515Y-14853984D01*
X12153515Y-14853984D02*
X12134467Y-14844460D01*
X12134467Y-14844460D02*
X12124944Y-14834936D01*
X12124944Y-14834936D02*
X12115420Y-14815888D01*
X12115420Y-14815888D02*
X12105896Y-14777793D01*
X12105896Y-14777793D02*
X12105896Y-14730174D01*
X12105896Y-14730174D02*
X12115420Y-14692079D01*
X12115420Y-14692079D02*
X12124944Y-14673031D01*
X12124944Y-14673031D02*
X12134467Y-14663508D01*
X12134467Y-14663508D02*
X12153515Y-14653984D01*
X12305896Y-14834936D02*
X12315420Y-14844460D01*
X12315420Y-14844460D02*
X12305896Y-14853984D01*
X12305896Y-14853984D02*
X12296372Y-14844460D01*
X12296372Y-14844460D02*
X12305896Y-14834936D01*
X12305896Y-14834936D02*
X12305896Y-14853984D01*
X12505896Y-14853984D02*
X12391610Y-14853984D01*
X12448753Y-14853984D02*
X12448753Y-14653984D01*
X12448753Y-14653984D02*
X12429706Y-14682555D01*
X12429706Y-14682555D02*
X12410658Y-14701603D01*
X12410658Y-14701603D02*
X12391610Y-14711127D01*
X12629706Y-14653984D02*
X12648753Y-14653984D01*
X12648753Y-14653984D02*
X12667801Y-14663508D01*
X12667801Y-14663508D02*
X12677325Y-14673031D01*
X12677325Y-14673031D02*
X12686848Y-14692079D01*
X12686848Y-14692079D02*
X12696372Y-14730174D01*
X12696372Y-14730174D02*
X12696372Y-14777793D01*
X12696372Y-14777793D02*
X12686848Y-14815888D01*
X12686848Y-14815888D02*
X12677325Y-14834936D01*
X12677325Y-14834936D02*
X12667801Y-14844460D01*
X12667801Y-14844460D02*
X12648753Y-14853984D01*
X12648753Y-14853984D02*
X12629706Y-14853984D01*
X12629706Y-14853984D02*
X12610658Y-14844460D01*
X12610658Y-14844460D02*
X12601134Y-14834936D01*
X12601134Y-14834936D02*
X12591610Y-14815888D01*
X12591610Y-14815888D02*
X12582087Y-14777793D01*
X12582087Y-14777793D02*
X12582087Y-14730174D01*
X12582087Y-14730174D02*
X12591610Y-14692079D01*
X12591610Y-14692079D02*
X12601134Y-14673031D01*
X12601134Y-14673031D02*
X12610658Y-14663508D01*
X12610658Y-14663508D02*
X12629706Y-14653984D01*
X12867801Y-14653984D02*
X12829706Y-14653984D01*
X12829706Y-14653984D02*
X12810658Y-14663508D01*
X12810658Y-14663508D02*
X12801134Y-14673031D01*
X12801134Y-14673031D02*
X12782087Y-14701603D01*
X12782087Y-14701603D02*
X12772563Y-14739698D01*
X12772563Y-14739698D02*
X12772563Y-14815888D01*
X12772563Y-14815888D02*
X12782087Y-14834936D01*
X12782087Y-14834936D02*
X12791610Y-14844460D01*
X12791610Y-14844460D02*
X12810658Y-14853984D01*
X12810658Y-14853984D02*
X12848753Y-14853984D01*
X12848753Y-14853984D02*
X12867801Y-14844460D01*
X12867801Y-14844460D02*
X12877325Y-14834936D01*
X12877325Y-14834936D02*
X12886848Y-14815888D01*
X12886848Y-14815888D02*
X12886848Y-14768269D01*
X12886848Y-14768269D02*
X12877325Y-14749222D01*
X12877325Y-14749222D02*
X12867801Y-14739698D01*
X12867801Y-14739698D02*
X12848753Y-14730174D01*
X12848753Y-14730174D02*
X12810658Y-14730174D01*
X12810658Y-14730174D02*
X12791610Y-14739698D01*
X12791610Y-14739698D02*
X12782087Y-14749222D01*
X12782087Y-14749222D02*
X12772563Y-14768269D01*
X12953515Y-14653984D02*
X13077325Y-14653984D01*
X13077325Y-14653984D02*
X13010658Y-14730174D01*
X13010658Y-14730174D02*
X13039229Y-14730174D01*
X13039229Y-14730174D02*
X13058277Y-14739698D01*
X13058277Y-14739698D02*
X13067801Y-14749222D01*
X13067801Y-14749222D02*
X13077325Y-14768269D01*
X13077325Y-14768269D02*
X13077325Y-14815888D01*
X13077325Y-14815888D02*
X13067801Y-14834936D01*
X13067801Y-14834936D02*
X13058277Y-14844460D01*
X13058277Y-14844460D02*
X13039229Y-14853984D01*
X13039229Y-14853984D02*
X12982087Y-14853984D01*
X12982087Y-14853984D02*
X12963039Y-14844460D01*
X12963039Y-14844460D02*
X12953515Y-14834936D01*
X13153515Y-14653984D02*
X13153515Y-14692079D01*
X13229706Y-14653984D02*
X13229706Y-14692079D01*
X13524944Y-14930174D02*
X13515420Y-14920650D01*
X13515420Y-14920650D02*
X13496372Y-14892079D01*
X13496372Y-14892079D02*
X13486849Y-14873031D01*
X13486849Y-14873031D02*
X13477325Y-14844460D01*
X13477325Y-14844460D02*
X13467801Y-14796841D01*
X13467801Y-14796841D02*
X13467801Y-14758746D01*
X13467801Y-14758746D02*
X13477325Y-14711127D01*
X13477325Y-14711127D02*
X13486849Y-14682555D01*
X13486849Y-14682555D02*
X13496372Y-14663508D01*
X13496372Y-14663508D02*
X13515420Y-14634936D01*
X13515420Y-14634936D02*
X13524944Y-14625412D01*
X13705896Y-14853984D02*
X13591610Y-14853984D01*
X13648753Y-14853984D02*
X13648753Y-14653984D01*
X13648753Y-14653984D02*
X13629706Y-14682555D01*
X13629706Y-14682555D02*
X13610658Y-14701603D01*
X13610658Y-14701603D02*
X13591610Y-14711127D01*
X13943991Y-14853984D02*
X13943991Y-14653984D01*
X14029706Y-14853984D02*
X14029706Y-14749222D01*
X14029706Y-14749222D02*
X14020182Y-14730174D01*
X14020182Y-14730174D02*
X14001134Y-14720650D01*
X14001134Y-14720650D02*
X13972563Y-14720650D01*
X13972563Y-14720650D02*
X13953515Y-14730174D01*
X13953515Y-14730174D02*
X13943991Y-14739698D01*
X14153515Y-14853984D02*
X14134468Y-14844460D01*
X14134468Y-14844460D02*
X14124944Y-14834936D01*
X14124944Y-14834936D02*
X14115420Y-14815888D01*
X14115420Y-14815888D02*
X14115420Y-14758746D01*
X14115420Y-14758746D02*
X14124944Y-14739698D01*
X14124944Y-14739698D02*
X14134468Y-14730174D01*
X14134468Y-14730174D02*
X14153515Y-14720650D01*
X14153515Y-14720650D02*
X14182087Y-14720650D01*
X14182087Y-14720650D02*
X14201134Y-14730174D01*
X14201134Y-14730174D02*
X14210658Y-14739698D01*
X14210658Y-14739698D02*
X14220182Y-14758746D01*
X14220182Y-14758746D02*
X14220182Y-14815888D01*
X14220182Y-14815888D02*
X14210658Y-14834936D01*
X14210658Y-14834936D02*
X14201134Y-14844460D01*
X14201134Y-14844460D02*
X14182087Y-14853984D01*
X14182087Y-14853984D02*
X14153515Y-14853984D01*
X14334468Y-14853984D02*
X14315420Y-14844460D01*
X14315420Y-14844460D02*
X14305896Y-14825412D01*
X14305896Y-14825412D02*
X14305896Y-14653984D01*
X14486849Y-14844460D02*
X14467801Y-14853984D01*
X14467801Y-14853984D02*
X14429706Y-14853984D01*
X14429706Y-14853984D02*
X14410658Y-14844460D01*
X14410658Y-14844460D02*
X14401134Y-14825412D01*
X14401134Y-14825412D02*
X14401134Y-14749222D01*
X14401134Y-14749222D02*
X14410658Y-14730174D01*
X14410658Y-14730174D02*
X14429706Y-14720650D01*
X14429706Y-14720650D02*
X14467801Y-14720650D01*
X14467801Y-14720650D02*
X14486849Y-14730174D01*
X14486849Y-14730174D02*
X14496372Y-14749222D01*
X14496372Y-14749222D02*
X14496372Y-14768269D01*
X14496372Y-14768269D02*
X14401134Y-14787317D01*
X14563039Y-14930174D02*
X14572563Y-14920650D01*
X14572563Y-14920650D02*
X14591611Y-14892079D01*
X14591611Y-14892079D02*
X14601134Y-14873031D01*
X14601134Y-14873031D02*
X14610658Y-14844460D01*
X14610658Y-14844460D02*
X14620182Y-14796841D01*
X14620182Y-14796841D02*
X14620182Y-14758746D01*
X14620182Y-14758746D02*
X14610658Y-14711127D01*
X14610658Y-14711127D02*
X14601134Y-14682555D01*
X14601134Y-14682555D02*
X14591611Y-14663508D01*
X14591611Y-14663508D02*
X14572563Y-14634936D01*
X14572563Y-14634936D02*
X14563039Y-14625412D01*
X9849881Y-14982500D02*
X9849881Y-15182500D01*
X9749881Y-15082500D02*
X9949881Y-15082500D01*
X10191610Y-14973984D02*
X10315420Y-14973984D01*
X10315420Y-14973984D02*
X10248753Y-15050174D01*
X10248753Y-15050174D02*
X10277325Y-15050174D01*
X10277325Y-15050174D02*
X10296372Y-15059698D01*
X10296372Y-15059698D02*
X10305896Y-15069222D01*
X10305896Y-15069222D02*
X10315420Y-15088269D01*
X10315420Y-15088269D02*
X10315420Y-15135888D01*
X10315420Y-15135888D02*
X10305896Y-15154936D01*
X10305896Y-15154936D02*
X10296372Y-15164460D01*
X10296372Y-15164460D02*
X10277325Y-15173984D01*
X10277325Y-15173984D02*
X10220182Y-15173984D01*
X10220182Y-15173984D02*
X10201134Y-15164460D01*
X10201134Y-15164460D02*
X10191610Y-15154936D01*
X10401134Y-15154936D02*
X10410658Y-15164460D01*
X10410658Y-15164460D02*
X10401134Y-15173984D01*
X10401134Y-15173984D02*
X10391610Y-15164460D01*
X10391610Y-15164460D02*
X10401134Y-15154936D01*
X10401134Y-15154936D02*
X10401134Y-15173984D01*
X10486848Y-14993031D02*
X10496372Y-14983508D01*
X10496372Y-14983508D02*
X10515420Y-14973984D01*
X10515420Y-14973984D02*
X10563039Y-14973984D01*
X10563039Y-14973984D02*
X10582086Y-14983508D01*
X10582086Y-14983508D02*
X10591610Y-14993031D01*
X10591610Y-14993031D02*
X10601134Y-15012079D01*
X10601134Y-15012079D02*
X10601134Y-15031127D01*
X10601134Y-15031127D02*
X10591610Y-15059698D01*
X10591610Y-15059698D02*
X10477325Y-15173984D01*
X10477325Y-15173984D02*
X10601134Y-15173984D01*
X10724944Y-14973984D02*
X10743991Y-14973984D01*
X10743991Y-14973984D02*
X10763039Y-14983508D01*
X10763039Y-14983508D02*
X10772563Y-14993031D01*
X10772563Y-14993031D02*
X10782086Y-15012079D01*
X10782086Y-15012079D02*
X10791610Y-15050174D01*
X10791610Y-15050174D02*
X10791610Y-15097793D01*
X10791610Y-15097793D02*
X10782086Y-15135888D01*
X10782086Y-15135888D02*
X10772563Y-15154936D01*
X10772563Y-15154936D02*
X10763039Y-15164460D01*
X10763039Y-15164460D02*
X10743991Y-15173984D01*
X10743991Y-15173984D02*
X10724944Y-15173984D01*
X10724944Y-15173984D02*
X10705896Y-15164460D01*
X10705896Y-15164460D02*
X10696372Y-15154936D01*
X10696372Y-15154936D02*
X10686848Y-15135888D01*
X10686848Y-15135888D02*
X10677325Y-15097793D01*
X10677325Y-15097793D02*
X10677325Y-15050174D01*
X10677325Y-15050174D02*
X10686848Y-15012079D01*
X10686848Y-15012079D02*
X10696372Y-14993031D01*
X10696372Y-14993031D02*
X10705896Y-14983508D01*
X10705896Y-14983508D02*
X10724944Y-14973984D01*
X10915420Y-14973984D02*
X10934467Y-14973984D01*
X10934467Y-14973984D02*
X10953515Y-14983508D01*
X10953515Y-14983508D02*
X10963039Y-14993031D01*
X10963039Y-14993031D02*
X10972563Y-15012079D01*
X10972563Y-15012079D02*
X10982086Y-15050174D01*
X10982086Y-15050174D02*
X10982086Y-15097793D01*
X10982086Y-15097793D02*
X10972563Y-15135888D01*
X10972563Y-15135888D02*
X10963039Y-15154936D01*
X10963039Y-15154936D02*
X10953515Y-15164460D01*
X10953515Y-15164460D02*
X10934467Y-15173984D01*
X10934467Y-15173984D02*
X10915420Y-15173984D01*
X10915420Y-15173984D02*
X10896372Y-15164460D01*
X10896372Y-15164460D02*
X10886848Y-15154936D01*
X10886848Y-15154936D02*
X10877325Y-15135888D01*
X10877325Y-15135888D02*
X10867801Y-15097793D01*
X10867801Y-15097793D02*
X10867801Y-15050174D01*
X10867801Y-15050174D02*
X10877325Y-15012079D01*
X10877325Y-15012079D02*
X10886848Y-14993031D01*
X10886848Y-14993031D02*
X10896372Y-14983508D01*
X10896372Y-14983508D02*
X10915420Y-14973984D01*
X11067801Y-15173984D02*
X11067801Y-15040650D01*
X11067801Y-15059698D02*
X11077325Y-15050174D01*
X11077325Y-15050174D02*
X11096372Y-15040650D01*
X11096372Y-15040650D02*
X11124944Y-15040650D01*
X11124944Y-15040650D02*
X11143991Y-15050174D01*
X11143991Y-15050174D02*
X11153515Y-15069222D01*
X11153515Y-15069222D02*
X11153515Y-15173984D01*
X11153515Y-15069222D02*
X11163039Y-15050174D01*
X11163039Y-15050174D02*
X11182086Y-15040650D01*
X11182086Y-15040650D02*
X11210658Y-15040650D01*
X11210658Y-15040650D02*
X11229705Y-15050174D01*
X11229705Y-15050174D02*
X11239229Y-15069222D01*
X11239229Y-15069222D02*
X11239229Y-15173984D01*
X11334467Y-15173984D02*
X11334467Y-15040650D01*
X11334467Y-15059698D02*
X11343991Y-15050174D01*
X11343991Y-15050174D02*
X11363039Y-15040650D01*
X11363039Y-15040650D02*
X11391610Y-15040650D01*
X11391610Y-15040650D02*
X11410658Y-15050174D01*
X11410658Y-15050174D02*
X11420182Y-15069222D01*
X11420182Y-15069222D02*
X11420182Y-15173984D01*
X11420182Y-15069222D02*
X11429705Y-15050174D01*
X11429705Y-15050174D02*
X11448753Y-15040650D01*
X11448753Y-15040650D02*
X11477324Y-15040650D01*
X11477324Y-15040650D02*
X11496372Y-15050174D01*
X11496372Y-15050174D02*
X11505896Y-15069222D01*
X11505896Y-15069222D02*
X11505896Y-15173984D01*
X11896372Y-14964460D02*
X11724944Y-15221603D01*
X12153515Y-14973984D02*
X12172563Y-14973984D01*
X12172563Y-14973984D02*
X12191610Y-14983508D01*
X12191610Y-14983508D02*
X12201134Y-14993031D01*
X12201134Y-14993031D02*
X12210658Y-15012079D01*
X12210658Y-15012079D02*
X12220182Y-15050174D01*
X12220182Y-15050174D02*
X12220182Y-15097793D01*
X12220182Y-15097793D02*
X12210658Y-15135888D01*
X12210658Y-15135888D02*
X12201134Y-15154936D01*
X12201134Y-15154936D02*
X12191610Y-15164460D01*
X12191610Y-15164460D02*
X12172563Y-15173984D01*
X12172563Y-15173984D02*
X12153515Y-15173984D01*
X12153515Y-15173984D02*
X12134467Y-15164460D01*
X12134467Y-15164460D02*
X12124944Y-15154936D01*
X12124944Y-15154936D02*
X12115420Y-15135888D01*
X12115420Y-15135888D02*
X12105896Y-15097793D01*
X12105896Y-15097793D02*
X12105896Y-15050174D01*
X12105896Y-15050174D02*
X12115420Y-15012079D01*
X12115420Y-15012079D02*
X12124944Y-14993031D01*
X12124944Y-14993031D02*
X12134467Y-14983508D01*
X12134467Y-14983508D02*
X12153515Y-14973984D01*
X12305896Y-15154936D02*
X12315420Y-15164460D01*
X12315420Y-15164460D02*
X12305896Y-15173984D01*
X12305896Y-15173984D02*
X12296372Y-15164460D01*
X12296372Y-15164460D02*
X12305896Y-15154936D01*
X12305896Y-15154936D02*
X12305896Y-15173984D01*
X12505896Y-15173984D02*
X12391610Y-15173984D01*
X12448753Y-15173984D02*
X12448753Y-14973984D01*
X12448753Y-14973984D02*
X12429706Y-15002555D01*
X12429706Y-15002555D02*
X12410658Y-15021603D01*
X12410658Y-15021603D02*
X12391610Y-15031127D01*
X12582087Y-14993031D02*
X12591610Y-14983508D01*
X12591610Y-14983508D02*
X12610658Y-14973984D01*
X12610658Y-14973984D02*
X12658277Y-14973984D01*
X12658277Y-14973984D02*
X12677325Y-14983508D01*
X12677325Y-14983508D02*
X12686848Y-14993031D01*
X12686848Y-14993031D02*
X12696372Y-15012079D01*
X12696372Y-15012079D02*
X12696372Y-15031127D01*
X12696372Y-15031127D02*
X12686848Y-15059698D01*
X12686848Y-15059698D02*
X12572563Y-15173984D01*
X12572563Y-15173984D02*
X12696372Y-15173984D01*
X12867801Y-14973984D02*
X12829706Y-14973984D01*
X12829706Y-14973984D02*
X12810658Y-14983508D01*
X12810658Y-14983508D02*
X12801134Y-14993031D01*
X12801134Y-14993031D02*
X12782087Y-15021603D01*
X12782087Y-15021603D02*
X12772563Y-15059698D01*
X12772563Y-15059698D02*
X12772563Y-15135888D01*
X12772563Y-15135888D02*
X12782087Y-15154936D01*
X12782087Y-15154936D02*
X12791610Y-15164460D01*
X12791610Y-15164460D02*
X12810658Y-15173984D01*
X12810658Y-15173984D02*
X12848753Y-15173984D01*
X12848753Y-15173984D02*
X12867801Y-15164460D01*
X12867801Y-15164460D02*
X12877325Y-15154936D01*
X12877325Y-15154936D02*
X12886848Y-15135888D01*
X12886848Y-15135888D02*
X12886848Y-15088269D01*
X12886848Y-15088269D02*
X12877325Y-15069222D01*
X12877325Y-15069222D02*
X12867801Y-15059698D01*
X12867801Y-15059698D02*
X12848753Y-15050174D01*
X12848753Y-15050174D02*
X12810658Y-15050174D01*
X12810658Y-15050174D02*
X12791610Y-15059698D01*
X12791610Y-15059698D02*
X12782087Y-15069222D01*
X12782087Y-15069222D02*
X12772563Y-15088269D01*
X13010658Y-14973984D02*
X13029706Y-14973984D01*
X13029706Y-14973984D02*
X13048753Y-14983508D01*
X13048753Y-14983508D02*
X13058277Y-14993031D01*
X13058277Y-14993031D02*
X13067801Y-15012079D01*
X13067801Y-15012079D02*
X13077325Y-15050174D01*
X13077325Y-15050174D02*
X13077325Y-15097793D01*
X13077325Y-15097793D02*
X13067801Y-15135888D01*
X13067801Y-15135888D02*
X13058277Y-15154936D01*
X13058277Y-15154936D02*
X13048753Y-15164460D01*
X13048753Y-15164460D02*
X13029706Y-15173984D01*
X13029706Y-15173984D02*
X13010658Y-15173984D01*
X13010658Y-15173984D02*
X12991610Y-15164460D01*
X12991610Y-15164460D02*
X12982087Y-15154936D01*
X12982087Y-15154936D02*
X12972563Y-15135888D01*
X12972563Y-15135888D02*
X12963039Y-15097793D01*
X12963039Y-15097793D02*
X12963039Y-15050174D01*
X12963039Y-15050174D02*
X12972563Y-15012079D01*
X12972563Y-15012079D02*
X12982087Y-14993031D01*
X12982087Y-14993031D02*
X12991610Y-14983508D01*
X12991610Y-14983508D02*
X13010658Y-14973984D01*
X13153515Y-14973984D02*
X13153515Y-15012079D01*
X13229706Y-14973984D02*
X13229706Y-15012079D01*
X13524944Y-15250174D02*
X13515420Y-15240650D01*
X13515420Y-15240650D02*
X13496372Y-15212079D01*
X13496372Y-15212079D02*
X13486849Y-15193031D01*
X13486849Y-15193031D02*
X13477325Y-15164460D01*
X13477325Y-15164460D02*
X13467801Y-15116841D01*
X13467801Y-15116841D02*
X13467801Y-15078746D01*
X13467801Y-15078746D02*
X13477325Y-15031127D01*
X13477325Y-15031127D02*
X13486849Y-15002555D01*
X13486849Y-15002555D02*
X13496372Y-14983508D01*
X13496372Y-14983508D02*
X13515420Y-14954936D01*
X13515420Y-14954936D02*
X13524944Y-14945412D01*
X13705896Y-15173984D02*
X13591610Y-15173984D01*
X13648753Y-15173984D02*
X13648753Y-14973984D01*
X13648753Y-14973984D02*
X13629706Y-15002555D01*
X13629706Y-15002555D02*
X13610658Y-15021603D01*
X13610658Y-15021603D02*
X13591610Y-15031127D01*
X13943991Y-15173984D02*
X13943991Y-14973984D01*
X14029706Y-15173984D02*
X14029706Y-15069222D01*
X14029706Y-15069222D02*
X14020182Y-15050174D01*
X14020182Y-15050174D02*
X14001134Y-15040650D01*
X14001134Y-15040650D02*
X13972563Y-15040650D01*
X13972563Y-15040650D02*
X13953515Y-15050174D01*
X13953515Y-15050174D02*
X13943991Y-15059698D01*
X14153515Y-15173984D02*
X14134468Y-15164460D01*
X14134468Y-15164460D02*
X14124944Y-15154936D01*
X14124944Y-15154936D02*
X14115420Y-15135888D01*
X14115420Y-15135888D02*
X14115420Y-15078746D01*
X14115420Y-15078746D02*
X14124944Y-15059698D01*
X14124944Y-15059698D02*
X14134468Y-15050174D01*
X14134468Y-15050174D02*
X14153515Y-15040650D01*
X14153515Y-15040650D02*
X14182087Y-15040650D01*
X14182087Y-15040650D02*
X14201134Y-15050174D01*
X14201134Y-15050174D02*
X14210658Y-15059698D01*
X14210658Y-15059698D02*
X14220182Y-15078746D01*
X14220182Y-15078746D02*
X14220182Y-15135888D01*
X14220182Y-15135888D02*
X14210658Y-15154936D01*
X14210658Y-15154936D02*
X14201134Y-15164460D01*
X14201134Y-15164460D02*
X14182087Y-15173984D01*
X14182087Y-15173984D02*
X14153515Y-15173984D01*
X14334468Y-15173984D02*
X14315420Y-15164460D01*
X14315420Y-15164460D02*
X14305896Y-15145412D01*
X14305896Y-15145412D02*
X14305896Y-14973984D01*
X14486849Y-15164460D02*
X14467801Y-15173984D01*
X14467801Y-15173984D02*
X14429706Y-15173984D01*
X14429706Y-15173984D02*
X14410658Y-15164460D01*
X14410658Y-15164460D02*
X14401134Y-15145412D01*
X14401134Y-15145412D02*
X14401134Y-15069222D01*
X14401134Y-15069222D02*
X14410658Y-15050174D01*
X14410658Y-15050174D02*
X14429706Y-15040650D01*
X14429706Y-15040650D02*
X14467801Y-15040650D01*
X14467801Y-15040650D02*
X14486849Y-15050174D01*
X14486849Y-15050174D02*
X14496372Y-15069222D01*
X14496372Y-15069222D02*
X14496372Y-15088269D01*
X14496372Y-15088269D02*
X14401134Y-15107317D01*
X14563039Y-15250174D02*
X14572563Y-15240650D01*
X14572563Y-15240650D02*
X14591611Y-15212079D01*
X14591611Y-15212079D02*
X14601134Y-15193031D01*
X14601134Y-15193031D02*
X14610658Y-15164460D01*
X14610658Y-15164460D02*
X14620182Y-15116841D01*
X14620182Y-15116841D02*
X14620182Y-15078746D01*
X14620182Y-15078746D02*
X14610658Y-15031127D01*
X14610658Y-15031127D02*
X14601134Y-15002555D01*
X14601134Y-15002555D02*
X14591611Y-14983508D01*
X14591611Y-14983508D02*
X14572563Y-14954936D01*
X14572563Y-14954936D02*
X14563039Y-14945412D01*
X9920592Y-15473211D02*
X9920592Y-15331789D01*
X9779170Y-15331789D01*
X9779170Y-15473211D01*
X9920592Y-15473211D01*
X10296372Y-15360650D02*
X10296372Y-15493984D01*
X10248753Y-15284460D02*
X10201134Y-15427317D01*
X10201134Y-15427317D02*
X10324944Y-15427317D01*
X10401134Y-15474936D02*
X10410658Y-15484460D01*
X10410658Y-15484460D02*
X10401134Y-15493984D01*
X10401134Y-15493984D02*
X10391610Y-15484460D01*
X10391610Y-15484460D02*
X10401134Y-15474936D01*
X10401134Y-15474936D02*
X10401134Y-15493984D01*
X10477325Y-15293984D02*
X10601134Y-15293984D01*
X10601134Y-15293984D02*
X10534467Y-15370174D01*
X10534467Y-15370174D02*
X10563039Y-15370174D01*
X10563039Y-15370174D02*
X10582086Y-15379698D01*
X10582086Y-15379698D02*
X10591610Y-15389222D01*
X10591610Y-15389222D02*
X10601134Y-15408269D01*
X10601134Y-15408269D02*
X10601134Y-15455888D01*
X10601134Y-15455888D02*
X10591610Y-15474936D01*
X10591610Y-15474936D02*
X10582086Y-15484460D01*
X10582086Y-15484460D02*
X10563039Y-15493984D01*
X10563039Y-15493984D02*
X10505896Y-15493984D01*
X10505896Y-15493984D02*
X10486848Y-15484460D01*
X10486848Y-15484460D02*
X10477325Y-15474936D01*
X10724944Y-15293984D02*
X10743991Y-15293984D01*
X10743991Y-15293984D02*
X10763039Y-15303508D01*
X10763039Y-15303508D02*
X10772563Y-15313031D01*
X10772563Y-15313031D02*
X10782086Y-15332079D01*
X10782086Y-15332079D02*
X10791610Y-15370174D01*
X10791610Y-15370174D02*
X10791610Y-15417793D01*
X10791610Y-15417793D02*
X10782086Y-15455888D01*
X10782086Y-15455888D02*
X10772563Y-15474936D01*
X10772563Y-15474936D02*
X10763039Y-15484460D01*
X10763039Y-15484460D02*
X10743991Y-15493984D01*
X10743991Y-15493984D02*
X10724944Y-15493984D01*
X10724944Y-15493984D02*
X10705896Y-15484460D01*
X10705896Y-15484460D02*
X10696372Y-15474936D01*
X10696372Y-15474936D02*
X10686848Y-15455888D01*
X10686848Y-15455888D02*
X10677325Y-15417793D01*
X10677325Y-15417793D02*
X10677325Y-15370174D01*
X10677325Y-15370174D02*
X10686848Y-15332079D01*
X10686848Y-15332079D02*
X10696372Y-15313031D01*
X10696372Y-15313031D02*
X10705896Y-15303508D01*
X10705896Y-15303508D02*
X10724944Y-15293984D01*
X10915420Y-15293984D02*
X10934467Y-15293984D01*
X10934467Y-15293984D02*
X10953515Y-15303508D01*
X10953515Y-15303508D02*
X10963039Y-15313031D01*
X10963039Y-15313031D02*
X10972563Y-15332079D01*
X10972563Y-15332079D02*
X10982086Y-15370174D01*
X10982086Y-15370174D02*
X10982086Y-15417793D01*
X10982086Y-15417793D02*
X10972563Y-15455888D01*
X10972563Y-15455888D02*
X10963039Y-15474936D01*
X10963039Y-15474936D02*
X10953515Y-15484460D01*
X10953515Y-15484460D02*
X10934467Y-15493984D01*
X10934467Y-15493984D02*
X10915420Y-15493984D01*
X10915420Y-15493984D02*
X10896372Y-15484460D01*
X10896372Y-15484460D02*
X10886848Y-15474936D01*
X10886848Y-15474936D02*
X10877325Y-15455888D01*
X10877325Y-15455888D02*
X10867801Y-15417793D01*
X10867801Y-15417793D02*
X10867801Y-15370174D01*
X10867801Y-15370174D02*
X10877325Y-15332079D01*
X10877325Y-15332079D02*
X10886848Y-15313031D01*
X10886848Y-15313031D02*
X10896372Y-15303508D01*
X10896372Y-15303508D02*
X10915420Y-15293984D01*
X11067801Y-15493984D02*
X11067801Y-15360650D01*
X11067801Y-15379698D02*
X11077325Y-15370174D01*
X11077325Y-15370174D02*
X11096372Y-15360650D01*
X11096372Y-15360650D02*
X11124944Y-15360650D01*
X11124944Y-15360650D02*
X11143991Y-15370174D01*
X11143991Y-15370174D02*
X11153515Y-15389222D01*
X11153515Y-15389222D02*
X11153515Y-15493984D01*
X11153515Y-15389222D02*
X11163039Y-15370174D01*
X11163039Y-15370174D02*
X11182086Y-15360650D01*
X11182086Y-15360650D02*
X11210658Y-15360650D01*
X11210658Y-15360650D02*
X11229705Y-15370174D01*
X11229705Y-15370174D02*
X11239229Y-15389222D01*
X11239229Y-15389222D02*
X11239229Y-15493984D01*
X11334467Y-15493984D02*
X11334467Y-15360650D01*
X11334467Y-15379698D02*
X11343991Y-15370174D01*
X11343991Y-15370174D02*
X11363039Y-15360650D01*
X11363039Y-15360650D02*
X11391610Y-15360650D01*
X11391610Y-15360650D02*
X11410658Y-15370174D01*
X11410658Y-15370174D02*
X11420182Y-15389222D01*
X11420182Y-15389222D02*
X11420182Y-15493984D01*
X11420182Y-15389222D02*
X11429705Y-15370174D01*
X11429705Y-15370174D02*
X11448753Y-15360650D01*
X11448753Y-15360650D02*
X11477324Y-15360650D01*
X11477324Y-15360650D02*
X11496372Y-15370174D01*
X11496372Y-15370174D02*
X11505896Y-15389222D01*
X11505896Y-15389222D02*
X11505896Y-15493984D01*
X11896372Y-15284460D02*
X11724944Y-15541603D01*
X12153515Y-15293984D02*
X12172563Y-15293984D01*
X12172563Y-15293984D02*
X12191610Y-15303508D01*
X12191610Y-15303508D02*
X12201134Y-15313031D01*
X12201134Y-15313031D02*
X12210658Y-15332079D01*
X12210658Y-15332079D02*
X12220182Y-15370174D01*
X12220182Y-15370174D02*
X12220182Y-15417793D01*
X12220182Y-15417793D02*
X12210658Y-15455888D01*
X12210658Y-15455888D02*
X12201134Y-15474936D01*
X12201134Y-15474936D02*
X12191610Y-15484460D01*
X12191610Y-15484460D02*
X12172563Y-15493984D01*
X12172563Y-15493984D02*
X12153515Y-15493984D01*
X12153515Y-15493984D02*
X12134467Y-15484460D01*
X12134467Y-15484460D02*
X12124944Y-15474936D01*
X12124944Y-15474936D02*
X12115420Y-15455888D01*
X12115420Y-15455888D02*
X12105896Y-15417793D01*
X12105896Y-15417793D02*
X12105896Y-15370174D01*
X12105896Y-15370174D02*
X12115420Y-15332079D01*
X12115420Y-15332079D02*
X12124944Y-15313031D01*
X12124944Y-15313031D02*
X12134467Y-15303508D01*
X12134467Y-15303508D02*
X12153515Y-15293984D01*
X12305896Y-15474936D02*
X12315420Y-15484460D01*
X12315420Y-15484460D02*
X12305896Y-15493984D01*
X12305896Y-15493984D02*
X12296372Y-15484460D01*
X12296372Y-15484460D02*
X12305896Y-15474936D01*
X12305896Y-15474936D02*
X12305896Y-15493984D01*
X12505896Y-15493984D02*
X12391610Y-15493984D01*
X12448753Y-15493984D02*
X12448753Y-15293984D01*
X12448753Y-15293984D02*
X12429706Y-15322555D01*
X12429706Y-15322555D02*
X12410658Y-15341603D01*
X12410658Y-15341603D02*
X12391610Y-15351127D01*
X12677325Y-15293984D02*
X12639229Y-15293984D01*
X12639229Y-15293984D02*
X12620182Y-15303508D01*
X12620182Y-15303508D02*
X12610658Y-15313031D01*
X12610658Y-15313031D02*
X12591610Y-15341603D01*
X12591610Y-15341603D02*
X12582087Y-15379698D01*
X12582087Y-15379698D02*
X12582087Y-15455888D01*
X12582087Y-15455888D02*
X12591610Y-15474936D01*
X12591610Y-15474936D02*
X12601134Y-15484460D01*
X12601134Y-15484460D02*
X12620182Y-15493984D01*
X12620182Y-15493984D02*
X12658277Y-15493984D01*
X12658277Y-15493984D02*
X12677325Y-15484460D01*
X12677325Y-15484460D02*
X12686848Y-15474936D01*
X12686848Y-15474936D02*
X12696372Y-15455888D01*
X12696372Y-15455888D02*
X12696372Y-15408269D01*
X12696372Y-15408269D02*
X12686848Y-15389222D01*
X12686848Y-15389222D02*
X12677325Y-15379698D01*
X12677325Y-15379698D02*
X12658277Y-15370174D01*
X12658277Y-15370174D02*
X12620182Y-15370174D01*
X12620182Y-15370174D02*
X12601134Y-15379698D01*
X12601134Y-15379698D02*
X12591610Y-15389222D01*
X12591610Y-15389222D02*
X12582087Y-15408269D01*
X12791610Y-15493984D02*
X12829706Y-15493984D01*
X12829706Y-15493984D02*
X12848753Y-15484460D01*
X12848753Y-15484460D02*
X12858277Y-15474936D01*
X12858277Y-15474936D02*
X12877325Y-15446365D01*
X12877325Y-15446365D02*
X12886848Y-15408269D01*
X12886848Y-15408269D02*
X12886848Y-15332079D01*
X12886848Y-15332079D02*
X12877325Y-15313031D01*
X12877325Y-15313031D02*
X12867801Y-15303508D01*
X12867801Y-15303508D02*
X12848753Y-15293984D01*
X12848753Y-15293984D02*
X12810658Y-15293984D01*
X12810658Y-15293984D02*
X12791610Y-15303508D01*
X12791610Y-15303508D02*
X12782087Y-15313031D01*
X12782087Y-15313031D02*
X12772563Y-15332079D01*
X12772563Y-15332079D02*
X12772563Y-15379698D01*
X12772563Y-15379698D02*
X12782087Y-15398746D01*
X12782087Y-15398746D02*
X12791610Y-15408269D01*
X12791610Y-15408269D02*
X12810658Y-15417793D01*
X12810658Y-15417793D02*
X12848753Y-15417793D01*
X12848753Y-15417793D02*
X12867801Y-15408269D01*
X12867801Y-15408269D02*
X12877325Y-15398746D01*
X12877325Y-15398746D02*
X12886848Y-15379698D01*
X12953515Y-15293984D02*
X13077325Y-15293984D01*
X13077325Y-15293984D02*
X13010658Y-15370174D01*
X13010658Y-15370174D02*
X13039229Y-15370174D01*
X13039229Y-15370174D02*
X13058277Y-15379698D01*
X13058277Y-15379698D02*
X13067801Y-15389222D01*
X13067801Y-15389222D02*
X13077325Y-15408269D01*
X13077325Y-15408269D02*
X13077325Y-15455888D01*
X13077325Y-15455888D02*
X13067801Y-15474936D01*
X13067801Y-15474936D02*
X13058277Y-15484460D01*
X13058277Y-15484460D02*
X13039229Y-15493984D01*
X13039229Y-15493984D02*
X12982087Y-15493984D01*
X12982087Y-15493984D02*
X12963039Y-15484460D01*
X12963039Y-15484460D02*
X12953515Y-15474936D01*
X13153515Y-15293984D02*
X13153515Y-15332079D01*
X13229706Y-15293984D02*
X13229706Y-15332079D01*
X13524944Y-15570174D02*
X13515420Y-15560650D01*
X13515420Y-15560650D02*
X13496372Y-15532079D01*
X13496372Y-15532079D02*
X13486849Y-15513031D01*
X13486849Y-15513031D02*
X13477325Y-15484460D01*
X13477325Y-15484460D02*
X13467801Y-15436841D01*
X13467801Y-15436841D02*
X13467801Y-15398746D01*
X13467801Y-15398746D02*
X13477325Y-15351127D01*
X13477325Y-15351127D02*
X13486849Y-15322555D01*
X13486849Y-15322555D02*
X13496372Y-15303508D01*
X13496372Y-15303508D02*
X13515420Y-15274936D01*
X13515420Y-15274936D02*
X13524944Y-15265412D01*
X13705896Y-15493984D02*
X13591610Y-15493984D01*
X13648753Y-15493984D02*
X13648753Y-15293984D01*
X13648753Y-15293984D02*
X13629706Y-15322555D01*
X13629706Y-15322555D02*
X13610658Y-15341603D01*
X13610658Y-15341603D02*
X13591610Y-15351127D01*
X13943991Y-15493984D02*
X13943991Y-15293984D01*
X14029706Y-15493984D02*
X14029706Y-15389222D01*
X14029706Y-15389222D02*
X14020182Y-15370174D01*
X14020182Y-15370174D02*
X14001134Y-15360650D01*
X14001134Y-15360650D02*
X13972563Y-15360650D01*
X13972563Y-15360650D02*
X13953515Y-15370174D01*
X13953515Y-15370174D02*
X13943991Y-15379698D01*
X14153515Y-15493984D02*
X14134468Y-15484460D01*
X14134468Y-15484460D02*
X14124944Y-15474936D01*
X14124944Y-15474936D02*
X14115420Y-15455888D01*
X14115420Y-15455888D02*
X14115420Y-15398746D01*
X14115420Y-15398746D02*
X14124944Y-15379698D01*
X14124944Y-15379698D02*
X14134468Y-15370174D01*
X14134468Y-15370174D02*
X14153515Y-15360650D01*
X14153515Y-15360650D02*
X14182087Y-15360650D01*
X14182087Y-15360650D02*
X14201134Y-15370174D01*
X14201134Y-15370174D02*
X14210658Y-15379698D01*
X14210658Y-15379698D02*
X14220182Y-15398746D01*
X14220182Y-15398746D02*
X14220182Y-15455888D01*
X14220182Y-15455888D02*
X14210658Y-15474936D01*
X14210658Y-15474936D02*
X14201134Y-15484460D01*
X14201134Y-15484460D02*
X14182087Y-15493984D01*
X14182087Y-15493984D02*
X14153515Y-15493984D01*
X14334468Y-15493984D02*
X14315420Y-15484460D01*
X14315420Y-15484460D02*
X14305896Y-15465412D01*
X14305896Y-15465412D02*
X14305896Y-15293984D01*
X14486849Y-15484460D02*
X14467801Y-15493984D01*
X14467801Y-15493984D02*
X14429706Y-15493984D01*
X14429706Y-15493984D02*
X14410658Y-15484460D01*
X14410658Y-15484460D02*
X14401134Y-15465412D01*
X14401134Y-15465412D02*
X14401134Y-15389222D01*
X14401134Y-15389222D02*
X14410658Y-15370174D01*
X14410658Y-15370174D02*
X14429706Y-15360650D01*
X14429706Y-15360650D02*
X14467801Y-15360650D01*
X14467801Y-15360650D02*
X14486849Y-15370174D01*
X14486849Y-15370174D02*
X14496372Y-15389222D01*
X14496372Y-15389222D02*
X14496372Y-15408269D01*
X14496372Y-15408269D02*
X14401134Y-15427317D01*
X14563039Y-15570174D02*
X14572563Y-15560650D01*
X14572563Y-15560650D02*
X14591611Y-15532079D01*
X14591611Y-15532079D02*
X14601134Y-15513031D01*
X14601134Y-15513031D02*
X14610658Y-15484460D01*
X14610658Y-15484460D02*
X14620182Y-15436841D01*
X14620182Y-15436841D02*
X14620182Y-15398746D01*
X14620182Y-15398746D02*
X14610658Y-15351127D01*
X14610658Y-15351127D02*
X14601134Y-15322555D01*
X14601134Y-15322555D02*
X14591611Y-15303508D01*
X14591611Y-15303508D02*
X14572563Y-15274936D01*
X14572563Y-15274936D02*
X14563039Y-15265412D01*
X9849881Y-15822500D02*
X9949881Y-15722500D01*
X9849881Y-15622500D01*
X9749881Y-15722500D01*
X9849881Y-15822500D01*
X10305896Y-15613984D02*
X10210658Y-15613984D01*
X10210658Y-15613984D02*
X10201134Y-15709222D01*
X10201134Y-15709222D02*
X10210658Y-15699698D01*
X10210658Y-15699698D02*
X10229705Y-15690174D01*
X10229705Y-15690174D02*
X10277325Y-15690174D01*
X10277325Y-15690174D02*
X10296372Y-15699698D01*
X10296372Y-15699698D02*
X10305896Y-15709222D01*
X10305896Y-15709222D02*
X10315420Y-15728269D01*
X10315420Y-15728269D02*
X10315420Y-15775888D01*
X10315420Y-15775888D02*
X10305896Y-15794936D01*
X10305896Y-15794936D02*
X10296372Y-15804460D01*
X10296372Y-15804460D02*
X10277325Y-15813984D01*
X10277325Y-15813984D02*
X10229705Y-15813984D01*
X10229705Y-15813984D02*
X10210658Y-15804460D01*
X10210658Y-15804460D02*
X10201134Y-15794936D01*
X10401134Y-15794936D02*
X10410658Y-15804460D01*
X10410658Y-15804460D02*
X10401134Y-15813984D01*
X10401134Y-15813984D02*
X10391610Y-15804460D01*
X10391610Y-15804460D02*
X10401134Y-15794936D01*
X10401134Y-15794936D02*
X10401134Y-15813984D01*
X10534467Y-15613984D02*
X10553515Y-15613984D01*
X10553515Y-15613984D02*
X10572563Y-15623508D01*
X10572563Y-15623508D02*
X10582086Y-15633031D01*
X10582086Y-15633031D02*
X10591610Y-15652079D01*
X10591610Y-15652079D02*
X10601134Y-15690174D01*
X10601134Y-15690174D02*
X10601134Y-15737793D01*
X10601134Y-15737793D02*
X10591610Y-15775888D01*
X10591610Y-15775888D02*
X10582086Y-15794936D01*
X10582086Y-15794936D02*
X10572563Y-15804460D01*
X10572563Y-15804460D02*
X10553515Y-15813984D01*
X10553515Y-15813984D02*
X10534467Y-15813984D01*
X10534467Y-15813984D02*
X10515420Y-15804460D01*
X10515420Y-15804460D02*
X10505896Y-15794936D01*
X10505896Y-15794936D02*
X10496372Y-15775888D01*
X10496372Y-15775888D02*
X10486848Y-15737793D01*
X10486848Y-15737793D02*
X10486848Y-15690174D01*
X10486848Y-15690174D02*
X10496372Y-15652079D01*
X10496372Y-15652079D02*
X10505896Y-15633031D01*
X10505896Y-15633031D02*
X10515420Y-15623508D01*
X10515420Y-15623508D02*
X10534467Y-15613984D01*
X10724944Y-15613984D02*
X10743991Y-15613984D01*
X10743991Y-15613984D02*
X10763039Y-15623508D01*
X10763039Y-15623508D02*
X10772563Y-15633031D01*
X10772563Y-15633031D02*
X10782086Y-15652079D01*
X10782086Y-15652079D02*
X10791610Y-15690174D01*
X10791610Y-15690174D02*
X10791610Y-15737793D01*
X10791610Y-15737793D02*
X10782086Y-15775888D01*
X10782086Y-15775888D02*
X10772563Y-15794936D01*
X10772563Y-15794936D02*
X10763039Y-15804460D01*
X10763039Y-15804460D02*
X10743991Y-15813984D01*
X10743991Y-15813984D02*
X10724944Y-15813984D01*
X10724944Y-15813984D02*
X10705896Y-15804460D01*
X10705896Y-15804460D02*
X10696372Y-15794936D01*
X10696372Y-15794936D02*
X10686848Y-15775888D01*
X10686848Y-15775888D02*
X10677325Y-15737793D01*
X10677325Y-15737793D02*
X10677325Y-15690174D01*
X10677325Y-15690174D02*
X10686848Y-15652079D01*
X10686848Y-15652079D02*
X10696372Y-15633031D01*
X10696372Y-15633031D02*
X10705896Y-15623508D01*
X10705896Y-15623508D02*
X10724944Y-15613984D01*
X10915420Y-15613984D02*
X10934467Y-15613984D01*
X10934467Y-15613984D02*
X10953515Y-15623508D01*
X10953515Y-15623508D02*
X10963039Y-15633031D01*
X10963039Y-15633031D02*
X10972563Y-15652079D01*
X10972563Y-15652079D02*
X10982086Y-15690174D01*
X10982086Y-15690174D02*
X10982086Y-15737793D01*
X10982086Y-15737793D02*
X10972563Y-15775888D01*
X10972563Y-15775888D02*
X10963039Y-15794936D01*
X10963039Y-15794936D02*
X10953515Y-15804460D01*
X10953515Y-15804460D02*
X10934467Y-15813984D01*
X10934467Y-15813984D02*
X10915420Y-15813984D01*
X10915420Y-15813984D02*
X10896372Y-15804460D01*
X10896372Y-15804460D02*
X10886848Y-15794936D01*
X10886848Y-15794936D02*
X10877325Y-15775888D01*
X10877325Y-15775888D02*
X10867801Y-15737793D01*
X10867801Y-15737793D02*
X10867801Y-15690174D01*
X10867801Y-15690174D02*
X10877325Y-15652079D01*
X10877325Y-15652079D02*
X10886848Y-15633031D01*
X10886848Y-15633031D02*
X10896372Y-15623508D01*
X10896372Y-15623508D02*
X10915420Y-15613984D01*
X11067801Y-15813984D02*
X11067801Y-15680650D01*
X11067801Y-15699698D02*
X11077325Y-15690174D01*
X11077325Y-15690174D02*
X11096372Y-15680650D01*
X11096372Y-15680650D02*
X11124944Y-15680650D01*
X11124944Y-15680650D02*
X11143991Y-15690174D01*
X11143991Y-15690174D02*
X11153515Y-15709222D01*
X11153515Y-15709222D02*
X11153515Y-15813984D01*
X11153515Y-15709222D02*
X11163039Y-15690174D01*
X11163039Y-15690174D02*
X11182086Y-15680650D01*
X11182086Y-15680650D02*
X11210658Y-15680650D01*
X11210658Y-15680650D02*
X11229705Y-15690174D01*
X11229705Y-15690174D02*
X11239229Y-15709222D01*
X11239229Y-15709222D02*
X11239229Y-15813984D01*
X11334467Y-15813984D02*
X11334467Y-15680650D01*
X11334467Y-15699698D02*
X11343991Y-15690174D01*
X11343991Y-15690174D02*
X11363039Y-15680650D01*
X11363039Y-15680650D02*
X11391610Y-15680650D01*
X11391610Y-15680650D02*
X11410658Y-15690174D01*
X11410658Y-15690174D02*
X11420182Y-15709222D01*
X11420182Y-15709222D02*
X11420182Y-15813984D01*
X11420182Y-15709222D02*
X11429705Y-15690174D01*
X11429705Y-15690174D02*
X11448753Y-15680650D01*
X11448753Y-15680650D02*
X11477324Y-15680650D01*
X11477324Y-15680650D02*
X11496372Y-15690174D01*
X11496372Y-15690174D02*
X11505896Y-15709222D01*
X11505896Y-15709222D02*
X11505896Y-15813984D01*
X11896372Y-15604460D02*
X11724944Y-15861603D01*
X12153515Y-15613984D02*
X12172563Y-15613984D01*
X12172563Y-15613984D02*
X12191610Y-15623508D01*
X12191610Y-15623508D02*
X12201134Y-15633031D01*
X12201134Y-15633031D02*
X12210658Y-15652079D01*
X12210658Y-15652079D02*
X12220182Y-15690174D01*
X12220182Y-15690174D02*
X12220182Y-15737793D01*
X12220182Y-15737793D02*
X12210658Y-15775888D01*
X12210658Y-15775888D02*
X12201134Y-15794936D01*
X12201134Y-15794936D02*
X12191610Y-15804460D01*
X12191610Y-15804460D02*
X12172563Y-15813984D01*
X12172563Y-15813984D02*
X12153515Y-15813984D01*
X12153515Y-15813984D02*
X12134467Y-15804460D01*
X12134467Y-15804460D02*
X12124944Y-15794936D01*
X12124944Y-15794936D02*
X12115420Y-15775888D01*
X12115420Y-15775888D02*
X12105896Y-15737793D01*
X12105896Y-15737793D02*
X12105896Y-15690174D01*
X12105896Y-15690174D02*
X12115420Y-15652079D01*
X12115420Y-15652079D02*
X12124944Y-15633031D01*
X12124944Y-15633031D02*
X12134467Y-15623508D01*
X12134467Y-15623508D02*
X12153515Y-15613984D01*
X12305896Y-15794936D02*
X12315420Y-15804460D01*
X12315420Y-15804460D02*
X12305896Y-15813984D01*
X12305896Y-15813984D02*
X12296372Y-15804460D01*
X12296372Y-15804460D02*
X12305896Y-15794936D01*
X12305896Y-15794936D02*
X12305896Y-15813984D01*
X12505896Y-15813984D02*
X12391610Y-15813984D01*
X12448753Y-15813984D02*
X12448753Y-15613984D01*
X12448753Y-15613984D02*
X12429706Y-15642555D01*
X12429706Y-15642555D02*
X12410658Y-15661603D01*
X12410658Y-15661603D02*
X12391610Y-15671127D01*
X12601134Y-15813984D02*
X12639229Y-15813984D01*
X12639229Y-15813984D02*
X12658277Y-15804460D01*
X12658277Y-15804460D02*
X12667801Y-15794936D01*
X12667801Y-15794936D02*
X12686848Y-15766365D01*
X12686848Y-15766365D02*
X12696372Y-15728269D01*
X12696372Y-15728269D02*
X12696372Y-15652079D01*
X12696372Y-15652079D02*
X12686848Y-15633031D01*
X12686848Y-15633031D02*
X12677325Y-15623508D01*
X12677325Y-15623508D02*
X12658277Y-15613984D01*
X12658277Y-15613984D02*
X12620182Y-15613984D01*
X12620182Y-15613984D02*
X12601134Y-15623508D01*
X12601134Y-15623508D02*
X12591610Y-15633031D01*
X12591610Y-15633031D02*
X12582087Y-15652079D01*
X12582087Y-15652079D02*
X12582087Y-15699698D01*
X12582087Y-15699698D02*
X12591610Y-15718746D01*
X12591610Y-15718746D02*
X12601134Y-15728269D01*
X12601134Y-15728269D02*
X12620182Y-15737793D01*
X12620182Y-15737793D02*
X12658277Y-15737793D01*
X12658277Y-15737793D02*
X12677325Y-15728269D01*
X12677325Y-15728269D02*
X12686848Y-15718746D01*
X12686848Y-15718746D02*
X12696372Y-15699698D01*
X12867801Y-15613984D02*
X12829706Y-15613984D01*
X12829706Y-15613984D02*
X12810658Y-15623508D01*
X12810658Y-15623508D02*
X12801134Y-15633031D01*
X12801134Y-15633031D02*
X12782087Y-15661603D01*
X12782087Y-15661603D02*
X12772563Y-15699698D01*
X12772563Y-15699698D02*
X12772563Y-15775888D01*
X12772563Y-15775888D02*
X12782087Y-15794936D01*
X12782087Y-15794936D02*
X12791610Y-15804460D01*
X12791610Y-15804460D02*
X12810658Y-15813984D01*
X12810658Y-15813984D02*
X12848753Y-15813984D01*
X12848753Y-15813984D02*
X12867801Y-15804460D01*
X12867801Y-15804460D02*
X12877325Y-15794936D01*
X12877325Y-15794936D02*
X12886848Y-15775888D01*
X12886848Y-15775888D02*
X12886848Y-15728269D01*
X12886848Y-15728269D02*
X12877325Y-15709222D01*
X12877325Y-15709222D02*
X12867801Y-15699698D01*
X12867801Y-15699698D02*
X12848753Y-15690174D01*
X12848753Y-15690174D02*
X12810658Y-15690174D01*
X12810658Y-15690174D02*
X12791610Y-15699698D01*
X12791610Y-15699698D02*
X12782087Y-15709222D01*
X12782087Y-15709222D02*
X12772563Y-15728269D01*
X12982087Y-15813984D02*
X13020182Y-15813984D01*
X13020182Y-15813984D02*
X13039229Y-15804460D01*
X13039229Y-15804460D02*
X13048753Y-15794936D01*
X13048753Y-15794936D02*
X13067801Y-15766365D01*
X13067801Y-15766365D02*
X13077325Y-15728269D01*
X13077325Y-15728269D02*
X13077325Y-15652079D01*
X13077325Y-15652079D02*
X13067801Y-15633031D01*
X13067801Y-15633031D02*
X13058277Y-15623508D01*
X13058277Y-15623508D02*
X13039229Y-15613984D01*
X13039229Y-15613984D02*
X13001134Y-15613984D01*
X13001134Y-15613984D02*
X12982087Y-15623508D01*
X12982087Y-15623508D02*
X12972563Y-15633031D01*
X12972563Y-15633031D02*
X12963039Y-15652079D01*
X12963039Y-15652079D02*
X12963039Y-15699698D01*
X12963039Y-15699698D02*
X12972563Y-15718746D01*
X12972563Y-15718746D02*
X12982087Y-15728269D01*
X12982087Y-15728269D02*
X13001134Y-15737793D01*
X13001134Y-15737793D02*
X13039229Y-15737793D01*
X13039229Y-15737793D02*
X13058277Y-15728269D01*
X13058277Y-15728269D02*
X13067801Y-15718746D01*
X13067801Y-15718746D02*
X13077325Y-15699698D01*
X13153515Y-15613984D02*
X13153515Y-15652079D01*
X13229706Y-15613984D02*
X13229706Y-15652079D01*
X13524944Y-15890174D02*
X13515420Y-15880650D01*
X13515420Y-15880650D02*
X13496372Y-15852079D01*
X13496372Y-15852079D02*
X13486849Y-15833031D01*
X13486849Y-15833031D02*
X13477325Y-15804460D01*
X13477325Y-15804460D02*
X13467801Y-15756841D01*
X13467801Y-15756841D02*
X13467801Y-15718746D01*
X13467801Y-15718746D02*
X13477325Y-15671127D01*
X13477325Y-15671127D02*
X13486849Y-15642555D01*
X13486849Y-15642555D02*
X13496372Y-15623508D01*
X13496372Y-15623508D02*
X13515420Y-15594936D01*
X13515420Y-15594936D02*
X13524944Y-15585412D01*
X13705896Y-15813984D02*
X13591610Y-15813984D01*
X13648753Y-15813984D02*
X13648753Y-15613984D01*
X13648753Y-15613984D02*
X13629706Y-15642555D01*
X13629706Y-15642555D02*
X13610658Y-15661603D01*
X13610658Y-15661603D02*
X13591610Y-15671127D01*
X13934468Y-15804460D02*
X13953515Y-15813984D01*
X13953515Y-15813984D02*
X13991610Y-15813984D01*
X13991610Y-15813984D02*
X14010658Y-15804460D01*
X14010658Y-15804460D02*
X14020182Y-15785412D01*
X14020182Y-15785412D02*
X14020182Y-15775888D01*
X14020182Y-15775888D02*
X14010658Y-15756841D01*
X14010658Y-15756841D02*
X13991610Y-15747317D01*
X13991610Y-15747317D02*
X13963039Y-15747317D01*
X13963039Y-15747317D02*
X13943991Y-15737793D01*
X13943991Y-15737793D02*
X13934468Y-15718746D01*
X13934468Y-15718746D02*
X13934468Y-15709222D01*
X13934468Y-15709222D02*
X13943991Y-15690174D01*
X13943991Y-15690174D02*
X13963039Y-15680650D01*
X13963039Y-15680650D02*
X13991610Y-15680650D01*
X13991610Y-15680650D02*
X14010658Y-15690174D01*
X14134468Y-15813984D02*
X14115420Y-15804460D01*
X14115420Y-15804460D02*
X14105896Y-15785412D01*
X14105896Y-15785412D02*
X14105896Y-15613984D01*
X14239230Y-15813984D02*
X14220182Y-15804460D01*
X14220182Y-15804460D02*
X14210658Y-15794936D01*
X14210658Y-15794936D02*
X14201134Y-15775888D01*
X14201134Y-15775888D02*
X14201134Y-15718746D01*
X14201134Y-15718746D02*
X14210658Y-15699698D01*
X14210658Y-15699698D02*
X14220182Y-15690174D01*
X14220182Y-15690174D02*
X14239230Y-15680650D01*
X14239230Y-15680650D02*
X14267801Y-15680650D01*
X14267801Y-15680650D02*
X14286849Y-15690174D01*
X14286849Y-15690174D02*
X14296372Y-15699698D01*
X14296372Y-15699698D02*
X14305896Y-15718746D01*
X14305896Y-15718746D02*
X14305896Y-15775888D01*
X14305896Y-15775888D02*
X14296372Y-15794936D01*
X14296372Y-15794936D02*
X14286849Y-15804460D01*
X14286849Y-15804460D02*
X14267801Y-15813984D01*
X14267801Y-15813984D02*
X14239230Y-15813984D01*
X14363039Y-15680650D02*
X14439230Y-15680650D01*
X14391611Y-15613984D02*
X14391611Y-15785412D01*
X14391611Y-15785412D02*
X14401134Y-15804460D01*
X14401134Y-15804460D02*
X14420182Y-15813984D01*
X14420182Y-15813984D02*
X14439230Y-15813984D01*
X14486849Y-15890174D02*
X14496372Y-15880650D01*
X14496372Y-15880650D02*
X14515420Y-15852079D01*
X14515420Y-15852079D02*
X14524944Y-15833031D01*
X14524944Y-15833031D02*
X14534468Y-15804460D01*
X14534468Y-15804460D02*
X14543991Y-15756841D01*
X14543991Y-15756841D02*
X14543991Y-15718746D01*
X14543991Y-15718746D02*
X14534468Y-15671127D01*
X14534468Y-15671127D02*
X14524944Y-15642555D01*
X14524944Y-15642555D02*
X14515420Y-15623508D01*
X14515420Y-15623508D02*
X14496372Y-15594936D01*
X14496372Y-15594936D02*
X14486849Y-15585412D01*
X9749881Y-15942500D02*
X9949881Y-16142500D01*
X9949881Y-15942500D02*
X9749881Y-16142500D01*
X9949881Y-16042500D02*
G75*
G03*
X9949881Y-16042500I-100000J0D01*
G01*
X10305896Y-15933984D02*
X10210658Y-15933984D01*
X10210658Y-15933984D02*
X10201134Y-16029222D01*
X10201134Y-16029222D02*
X10210658Y-16019698D01*
X10210658Y-16019698D02*
X10229705Y-16010174D01*
X10229705Y-16010174D02*
X10277325Y-16010174D01*
X10277325Y-16010174D02*
X10296372Y-16019698D01*
X10296372Y-16019698D02*
X10305896Y-16029222D01*
X10305896Y-16029222D02*
X10315420Y-16048269D01*
X10315420Y-16048269D02*
X10315420Y-16095888D01*
X10315420Y-16095888D02*
X10305896Y-16114936D01*
X10305896Y-16114936D02*
X10296372Y-16124460D01*
X10296372Y-16124460D02*
X10277325Y-16133984D01*
X10277325Y-16133984D02*
X10229705Y-16133984D01*
X10229705Y-16133984D02*
X10210658Y-16124460D01*
X10210658Y-16124460D02*
X10201134Y-16114936D01*
X10401134Y-16114936D02*
X10410658Y-16124460D01*
X10410658Y-16124460D02*
X10401134Y-16133984D01*
X10401134Y-16133984D02*
X10391610Y-16124460D01*
X10391610Y-16124460D02*
X10401134Y-16114936D01*
X10401134Y-16114936D02*
X10401134Y-16133984D01*
X10477325Y-15933984D02*
X10601134Y-15933984D01*
X10601134Y-15933984D02*
X10534467Y-16010174D01*
X10534467Y-16010174D02*
X10563039Y-16010174D01*
X10563039Y-16010174D02*
X10582086Y-16019698D01*
X10582086Y-16019698D02*
X10591610Y-16029222D01*
X10591610Y-16029222D02*
X10601134Y-16048269D01*
X10601134Y-16048269D02*
X10601134Y-16095888D01*
X10601134Y-16095888D02*
X10591610Y-16114936D01*
X10591610Y-16114936D02*
X10582086Y-16124460D01*
X10582086Y-16124460D02*
X10563039Y-16133984D01*
X10563039Y-16133984D02*
X10505896Y-16133984D01*
X10505896Y-16133984D02*
X10486848Y-16124460D01*
X10486848Y-16124460D02*
X10477325Y-16114936D01*
X10724944Y-15933984D02*
X10743991Y-15933984D01*
X10743991Y-15933984D02*
X10763039Y-15943508D01*
X10763039Y-15943508D02*
X10772563Y-15953031D01*
X10772563Y-15953031D02*
X10782086Y-15972079D01*
X10782086Y-15972079D02*
X10791610Y-16010174D01*
X10791610Y-16010174D02*
X10791610Y-16057793D01*
X10791610Y-16057793D02*
X10782086Y-16095888D01*
X10782086Y-16095888D02*
X10772563Y-16114936D01*
X10772563Y-16114936D02*
X10763039Y-16124460D01*
X10763039Y-16124460D02*
X10743991Y-16133984D01*
X10743991Y-16133984D02*
X10724944Y-16133984D01*
X10724944Y-16133984D02*
X10705896Y-16124460D01*
X10705896Y-16124460D02*
X10696372Y-16114936D01*
X10696372Y-16114936D02*
X10686848Y-16095888D01*
X10686848Y-16095888D02*
X10677325Y-16057793D01*
X10677325Y-16057793D02*
X10677325Y-16010174D01*
X10677325Y-16010174D02*
X10686848Y-15972079D01*
X10686848Y-15972079D02*
X10696372Y-15953031D01*
X10696372Y-15953031D02*
X10705896Y-15943508D01*
X10705896Y-15943508D02*
X10724944Y-15933984D01*
X10915420Y-15933984D02*
X10934467Y-15933984D01*
X10934467Y-15933984D02*
X10953515Y-15943508D01*
X10953515Y-15943508D02*
X10963039Y-15953031D01*
X10963039Y-15953031D02*
X10972563Y-15972079D01*
X10972563Y-15972079D02*
X10982086Y-16010174D01*
X10982086Y-16010174D02*
X10982086Y-16057793D01*
X10982086Y-16057793D02*
X10972563Y-16095888D01*
X10972563Y-16095888D02*
X10963039Y-16114936D01*
X10963039Y-16114936D02*
X10953515Y-16124460D01*
X10953515Y-16124460D02*
X10934467Y-16133984D01*
X10934467Y-16133984D02*
X10915420Y-16133984D01*
X10915420Y-16133984D02*
X10896372Y-16124460D01*
X10896372Y-16124460D02*
X10886848Y-16114936D01*
X10886848Y-16114936D02*
X10877325Y-16095888D01*
X10877325Y-16095888D02*
X10867801Y-16057793D01*
X10867801Y-16057793D02*
X10867801Y-16010174D01*
X10867801Y-16010174D02*
X10877325Y-15972079D01*
X10877325Y-15972079D02*
X10886848Y-15953031D01*
X10886848Y-15953031D02*
X10896372Y-15943508D01*
X10896372Y-15943508D02*
X10915420Y-15933984D01*
X11067801Y-16133984D02*
X11067801Y-16000650D01*
X11067801Y-16019698D02*
X11077325Y-16010174D01*
X11077325Y-16010174D02*
X11096372Y-16000650D01*
X11096372Y-16000650D02*
X11124944Y-16000650D01*
X11124944Y-16000650D02*
X11143991Y-16010174D01*
X11143991Y-16010174D02*
X11153515Y-16029222D01*
X11153515Y-16029222D02*
X11153515Y-16133984D01*
X11153515Y-16029222D02*
X11163039Y-16010174D01*
X11163039Y-16010174D02*
X11182086Y-16000650D01*
X11182086Y-16000650D02*
X11210658Y-16000650D01*
X11210658Y-16000650D02*
X11229705Y-16010174D01*
X11229705Y-16010174D02*
X11239229Y-16029222D01*
X11239229Y-16029222D02*
X11239229Y-16133984D01*
X11334467Y-16133984D02*
X11334467Y-16000650D01*
X11334467Y-16019698D02*
X11343991Y-16010174D01*
X11343991Y-16010174D02*
X11363039Y-16000650D01*
X11363039Y-16000650D02*
X11391610Y-16000650D01*
X11391610Y-16000650D02*
X11410658Y-16010174D01*
X11410658Y-16010174D02*
X11420182Y-16029222D01*
X11420182Y-16029222D02*
X11420182Y-16133984D01*
X11420182Y-16029222D02*
X11429705Y-16010174D01*
X11429705Y-16010174D02*
X11448753Y-16000650D01*
X11448753Y-16000650D02*
X11477324Y-16000650D01*
X11477324Y-16000650D02*
X11496372Y-16010174D01*
X11496372Y-16010174D02*
X11505896Y-16029222D01*
X11505896Y-16029222D02*
X11505896Y-16133984D01*
X11896372Y-15924460D02*
X11724944Y-16181603D01*
X12153515Y-15933984D02*
X12172563Y-15933984D01*
X12172563Y-15933984D02*
X12191610Y-15943508D01*
X12191610Y-15943508D02*
X12201134Y-15953031D01*
X12201134Y-15953031D02*
X12210658Y-15972079D01*
X12210658Y-15972079D02*
X12220182Y-16010174D01*
X12220182Y-16010174D02*
X12220182Y-16057793D01*
X12220182Y-16057793D02*
X12210658Y-16095888D01*
X12210658Y-16095888D02*
X12201134Y-16114936D01*
X12201134Y-16114936D02*
X12191610Y-16124460D01*
X12191610Y-16124460D02*
X12172563Y-16133984D01*
X12172563Y-16133984D02*
X12153515Y-16133984D01*
X12153515Y-16133984D02*
X12134467Y-16124460D01*
X12134467Y-16124460D02*
X12124944Y-16114936D01*
X12124944Y-16114936D02*
X12115420Y-16095888D01*
X12115420Y-16095888D02*
X12105896Y-16057793D01*
X12105896Y-16057793D02*
X12105896Y-16010174D01*
X12105896Y-16010174D02*
X12115420Y-15972079D01*
X12115420Y-15972079D02*
X12124944Y-15953031D01*
X12124944Y-15953031D02*
X12134467Y-15943508D01*
X12134467Y-15943508D02*
X12153515Y-15933984D01*
X12305896Y-16114936D02*
X12315420Y-16124460D01*
X12315420Y-16124460D02*
X12305896Y-16133984D01*
X12305896Y-16133984D02*
X12296372Y-16124460D01*
X12296372Y-16124460D02*
X12305896Y-16114936D01*
X12305896Y-16114936D02*
X12305896Y-16133984D01*
X12391610Y-15953031D02*
X12401134Y-15943508D01*
X12401134Y-15943508D02*
X12420182Y-15933984D01*
X12420182Y-15933984D02*
X12467801Y-15933984D01*
X12467801Y-15933984D02*
X12486848Y-15943508D01*
X12486848Y-15943508D02*
X12496372Y-15953031D01*
X12496372Y-15953031D02*
X12505896Y-15972079D01*
X12505896Y-15972079D02*
X12505896Y-15991127D01*
X12505896Y-15991127D02*
X12496372Y-16019698D01*
X12496372Y-16019698D02*
X12382087Y-16133984D01*
X12382087Y-16133984D02*
X12505896Y-16133984D01*
X12629706Y-15933984D02*
X12648753Y-15933984D01*
X12648753Y-15933984D02*
X12667801Y-15943508D01*
X12667801Y-15943508D02*
X12677325Y-15953031D01*
X12677325Y-15953031D02*
X12686848Y-15972079D01*
X12686848Y-15972079D02*
X12696372Y-16010174D01*
X12696372Y-16010174D02*
X12696372Y-16057793D01*
X12696372Y-16057793D02*
X12686848Y-16095888D01*
X12686848Y-16095888D02*
X12677325Y-16114936D01*
X12677325Y-16114936D02*
X12667801Y-16124460D01*
X12667801Y-16124460D02*
X12648753Y-16133984D01*
X12648753Y-16133984D02*
X12629706Y-16133984D01*
X12629706Y-16133984D02*
X12610658Y-16124460D01*
X12610658Y-16124460D02*
X12601134Y-16114936D01*
X12601134Y-16114936D02*
X12591610Y-16095888D01*
X12591610Y-16095888D02*
X12582087Y-16057793D01*
X12582087Y-16057793D02*
X12582087Y-16010174D01*
X12582087Y-16010174D02*
X12591610Y-15972079D01*
X12591610Y-15972079D02*
X12601134Y-15953031D01*
X12601134Y-15953031D02*
X12610658Y-15943508D01*
X12610658Y-15943508D02*
X12629706Y-15933984D01*
X12810658Y-16019698D02*
X12791610Y-16010174D01*
X12791610Y-16010174D02*
X12782087Y-16000650D01*
X12782087Y-16000650D02*
X12772563Y-15981603D01*
X12772563Y-15981603D02*
X12772563Y-15972079D01*
X12772563Y-15972079D02*
X12782087Y-15953031D01*
X12782087Y-15953031D02*
X12791610Y-15943508D01*
X12791610Y-15943508D02*
X12810658Y-15933984D01*
X12810658Y-15933984D02*
X12848753Y-15933984D01*
X12848753Y-15933984D02*
X12867801Y-15943508D01*
X12867801Y-15943508D02*
X12877325Y-15953031D01*
X12877325Y-15953031D02*
X12886848Y-15972079D01*
X12886848Y-15972079D02*
X12886848Y-15981603D01*
X12886848Y-15981603D02*
X12877325Y-16000650D01*
X12877325Y-16000650D02*
X12867801Y-16010174D01*
X12867801Y-16010174D02*
X12848753Y-16019698D01*
X12848753Y-16019698D02*
X12810658Y-16019698D01*
X12810658Y-16019698D02*
X12791610Y-16029222D01*
X12791610Y-16029222D02*
X12782087Y-16038746D01*
X12782087Y-16038746D02*
X12772563Y-16057793D01*
X12772563Y-16057793D02*
X12772563Y-16095888D01*
X12772563Y-16095888D02*
X12782087Y-16114936D01*
X12782087Y-16114936D02*
X12791610Y-16124460D01*
X12791610Y-16124460D02*
X12810658Y-16133984D01*
X12810658Y-16133984D02*
X12848753Y-16133984D01*
X12848753Y-16133984D02*
X12867801Y-16124460D01*
X12867801Y-16124460D02*
X12877325Y-16114936D01*
X12877325Y-16114936D02*
X12886848Y-16095888D01*
X12886848Y-16095888D02*
X12886848Y-16057793D01*
X12886848Y-16057793D02*
X12877325Y-16038746D01*
X12877325Y-16038746D02*
X12867801Y-16029222D01*
X12867801Y-16029222D02*
X12848753Y-16019698D01*
X12953515Y-15933984D02*
X13086848Y-15933984D01*
X13086848Y-15933984D02*
X13001134Y-16133984D01*
X13153515Y-15933984D02*
X13153515Y-15972079D01*
X13229706Y-15933984D02*
X13229706Y-15972079D01*
X13524944Y-16210174D02*
X13515420Y-16200650D01*
X13515420Y-16200650D02*
X13496372Y-16172079D01*
X13496372Y-16172079D02*
X13486849Y-16153031D01*
X13486849Y-16153031D02*
X13477325Y-16124460D01*
X13477325Y-16124460D02*
X13467801Y-16076841D01*
X13467801Y-16076841D02*
X13467801Y-16038746D01*
X13467801Y-16038746D02*
X13477325Y-15991127D01*
X13477325Y-15991127D02*
X13486849Y-15962555D01*
X13486849Y-15962555D02*
X13496372Y-15943508D01*
X13496372Y-15943508D02*
X13515420Y-15914936D01*
X13515420Y-15914936D02*
X13524944Y-15905412D01*
X13705896Y-16133984D02*
X13591610Y-16133984D01*
X13648753Y-16133984D02*
X13648753Y-15933984D01*
X13648753Y-15933984D02*
X13629706Y-15962555D01*
X13629706Y-15962555D02*
X13610658Y-15981603D01*
X13610658Y-15981603D02*
X13591610Y-15991127D01*
X13943991Y-16133984D02*
X13943991Y-15933984D01*
X14029706Y-16133984D02*
X14029706Y-16029222D01*
X14029706Y-16029222D02*
X14020182Y-16010174D01*
X14020182Y-16010174D02*
X14001134Y-16000650D01*
X14001134Y-16000650D02*
X13972563Y-16000650D01*
X13972563Y-16000650D02*
X13953515Y-16010174D01*
X13953515Y-16010174D02*
X13943991Y-16019698D01*
X14153515Y-16133984D02*
X14134468Y-16124460D01*
X14134468Y-16124460D02*
X14124944Y-16114936D01*
X14124944Y-16114936D02*
X14115420Y-16095888D01*
X14115420Y-16095888D02*
X14115420Y-16038746D01*
X14115420Y-16038746D02*
X14124944Y-16019698D01*
X14124944Y-16019698D02*
X14134468Y-16010174D01*
X14134468Y-16010174D02*
X14153515Y-16000650D01*
X14153515Y-16000650D02*
X14182087Y-16000650D01*
X14182087Y-16000650D02*
X14201134Y-16010174D01*
X14201134Y-16010174D02*
X14210658Y-16019698D01*
X14210658Y-16019698D02*
X14220182Y-16038746D01*
X14220182Y-16038746D02*
X14220182Y-16095888D01*
X14220182Y-16095888D02*
X14210658Y-16114936D01*
X14210658Y-16114936D02*
X14201134Y-16124460D01*
X14201134Y-16124460D02*
X14182087Y-16133984D01*
X14182087Y-16133984D02*
X14153515Y-16133984D01*
X14334468Y-16133984D02*
X14315420Y-16124460D01*
X14315420Y-16124460D02*
X14305896Y-16105412D01*
X14305896Y-16105412D02*
X14305896Y-15933984D01*
X14486849Y-16124460D02*
X14467801Y-16133984D01*
X14467801Y-16133984D02*
X14429706Y-16133984D01*
X14429706Y-16133984D02*
X14410658Y-16124460D01*
X14410658Y-16124460D02*
X14401134Y-16105412D01*
X14401134Y-16105412D02*
X14401134Y-16029222D01*
X14401134Y-16029222D02*
X14410658Y-16010174D01*
X14410658Y-16010174D02*
X14429706Y-16000650D01*
X14429706Y-16000650D02*
X14467801Y-16000650D01*
X14467801Y-16000650D02*
X14486849Y-16010174D01*
X14486849Y-16010174D02*
X14496372Y-16029222D01*
X14496372Y-16029222D02*
X14496372Y-16048269D01*
X14496372Y-16048269D02*
X14401134Y-16067317D01*
X14563039Y-16210174D02*
X14572563Y-16200650D01*
X14572563Y-16200650D02*
X14591611Y-16172079D01*
X14591611Y-16172079D02*
X14601134Y-16153031D01*
X14601134Y-16153031D02*
X14610658Y-16124460D01*
X14610658Y-16124460D02*
X14620182Y-16076841D01*
X14620182Y-16076841D02*
X14620182Y-16038746D01*
X14620182Y-16038746D02*
X14610658Y-15991127D01*
X14610658Y-15991127D02*
X14601134Y-15962555D01*
X14601134Y-15962555D02*
X14591611Y-15943508D01*
X14591611Y-15943508D02*
X14572563Y-15914936D01*
X14572563Y-15914936D02*
X14563039Y-15905412D01*
M02*
